# Blender v2.78 (sub 0) OBJ File: '7.blend'
# www.blender.org
mtllib Wall_Art_Classical_01.mtl
o Wall_Art_Classical_Plane
v 3.587124 1.535016 0.338822
v -3.587124 1.535016 0.338824
v 3.587124 11.998590 0.338822
v -3.587124 11.998590 0.338824
v 4.945537 13.490952 0.351811
v 4.945537 0.005464 0.351811
v -4.945537 0.005464 0.351815
v -4.945537 13.490952 0.351814
v 3.693502 12.153742 -0.170702
v 3.693502 1.379864 -0.170701
v -3.693502 1.379864 -0.170699
v -3.693502 12.153742 -0.170699
v 4.808481 13.304090 -0.229446
v 4.808481 0.192326 -0.229446
v -4.808481 0.192326 -0.229442
v -4.808481 13.304090 -0.229443
v 4.945537 13.490952 0.617298
v 4.945537 0.005464 0.617298
v -4.945537 0.005464 0.617301
v -4.945537 13.490952 0.617301
v 0.000000 6.748209 0.571546
v 3.954281 1.096938 -0.100380
v -3.954281 1.096938 -0.100377
v -3.954281 12.418074 -0.100378
v 3.954281 12.418074 -0.100380
v 3.764364 1.263742 -0.000001
v -3.782654 1.263742 0.000001
v 3.764364 12.262117 -0.000001
v -3.782654 12.262117 0.000001
v 3.764364 7.064705 -0.000001
v -0.009145 1.263742 0.000000
v -3.782654 7.064705 0.000001
v -0.009145 12.262117 -0.000000
v -0.009145 7.064705 0.000000
v 3.764364 4.164223 -0.000001
v -1.895900 1.263742 0.000001
v -3.782654 9.965184 0.000001
v 1.877609 12.262117 -0.000001
v 3.764364 9.965184 -0.000001
v 1.877609 1.263742 -0.000000
v -3.782654 4.164223 0.000001
v -1.895900 12.262117 0.000000
v -0.009145 4.762982 0.000000
v -0.009145 4.164223 0.000000
v 1.877609 7.064705 -0.000001
v -1.895900 7.064705 0.000001
v -1.895900 4.164223 0.000001
v 1.877609 4.164223 -0.000000
v 1.627462 10.104895 -0.000001
v -1.645752 10.104895 0.000000
v -0.009145 10.861751 -0.000000
v -1.141662 7.814938 0.000000
v -0.009145 7.814938 -0.000000
v -0.009145 9.555940 -0.000000
v 1.123372 7.814938 -0.000000
v 1.123372 9.555940 -0.000000
v -1.141662 9.555940 0.000000
v -0.009145 10.058331 -0.000000
v 0.576848 7.064705 -0.000000
v -1.279296 7.064705 0.000000
v 1.877609 5.401655 -0.000001
v -1.498840 5.740952 0.000001
v 3.071666 4.164223 -0.000001
v 3.764364 3.625346 -0.000001
v 3.391002 3.765055 -0.000001
v 2.752329 6.279831 -0.000001
v -3.782654 2.248206 0.000001
v -3.315067 4.164223 0.000001
v -2.776186 5.900620 0.000001
v -3.115482 4.563397 0.000001
v -1.895900 7.936390 0.000001
v -3.782654 8.215810 0.000001
v -3.354984 9.034110 0.000001
v -3.075564 8.335561 0.000001
v -2.676394 9.113945 0.000001
v 1.877609 8.355519 -0.000001
v 2.333200 8.734733 -0.000001
v 2.492868 8.455313 -0.000001
v 2.572702 8.874442 -0.000001
v 2.832163 9.153861 -0.000001
v 3.051708 8.774649 -0.000001
v 3.211376 9.353447 -0.000001
v 3.371044 8.934319 -0.000001
v 1.877609 3.665262 -0.000000
v -0.009145 2.906837 0.000000
v 0.576848 3.685221 -0.000000
v 0.856268 2.607460 -0.000000
v 1.435066 3.306009 -0.000000
v -0.009145 2.228247 0.000000
v -1.895900 2.787086 0.000001
v 1.877609 1.928869 -0.000000
v 1.877609 2.966713 -0.000000
v 1.235480 1.669408 -0.000000
v 1.055853 2.088537 -0.000000
v -2.556643 3.266092 -0.000001
vn -0.0000 -0.0000 -1.0000
vn 0.1494 -0.0000 -0.9888
vn -0.9789 0.0000 -0.2044
vn 0.9789 0.0000 -0.2044
vn 0.9733 -0.0000 -0.2295
vn -0.9733 0.0000 -0.2295
vn -0.1494 -0.0000 -0.9888
vn -0.0000 -0.1441 -0.9896
vn -0.0000 0.1412 -0.9900
vn -0.0000 0.9520 -0.3061
vn -0.0000 -0.9520 -0.3061
vn -0.0000 -0.9566 -0.2913
vn -0.0000 0.9566 -0.2913
vn -1.0000 0.0000 0.0000
vn 1.0000 0.0000 0.0000
vn 0.0000 1.0000 0.0000
vn 0.0000 -1.0000 0.0000
vn -0.0093 0.0000 1.0000
vn 0.0000 -0.0068 1.0000
vn 0.0000 0.0068 1.0000
vn 0.0093 0.0000 1.0000
vn -0.0000 -0.2412 -0.9705
vn -0.0000 0.2571 -0.9664
vn 0.2604 -0.0000 -0.9655
vn -0.2604 -0.0000 -0.9655
usemtl DD9944
s off
f 1//1 2//1 4//1 3//1
f 23//2 15//2 16//2 24//2
f 3//3 9//3 10//3 1//3
f 2//4 11//4 12//4 4//4
f 6//5 14//5 13//5 5//5
f 8//6 16//6 15//6 7//6
f 25//7 13//7 14//7 22//7
f 24//8 16//8 13//8 25//8
f 22//9 14//9 15//9 23//9
f 5//10 13//10 16//10 8//10
f 7//11 15//11 14//11 6//11
f 4//12 12//12 9//12 3//12
f 1//13 10//13 11//13 2//13
f 8//14 7//14 19//14 20//14
f 6//15 5//15 17//15 18//15
f 5//16 8//16 20//16 17//16
f 7//17 6//17 18//17 19//17
f 18//18 17//18 21//18
f 17//19 20//19 21//19
f 19//20 18//20 21//20
f 20//21 19//21 21//21
f 10//22 22//22 23//22 11//22
f 12//23 24//23 25//23 9//23
f 9//24 25//24 22//24 10//24
f 11//25 23//25 24//25 12//25
f 34//1 60//1 52//1 53//1
f 56//1 54//1 58//1
f 55//1 53//1 54//1 56//1
f 54//1 57//1 58//1
f 53//1 52//1 57//1 54//1
f 43//1 62//1 60//1 34//1
f 55//1 59//1 34//1 53//1
f 59//1 61//1 43//1 34//1
f 84//1 88//1 86//1 48//1
f 86//1 88//1 87//1 85//1
f 91//1 93//1 94//1 89//1 85//1 87//1 88//1 92//1
f 92//1 88//1 84//1
usemtl 1A1A1A
f 49//1 76//1 45//1 55//1 56//1
f 48//1 44//1 43//1 61//1
f 47//1 68//1 70//1 69//1 46//1
f 44//1 47//1 46//1 60//1 62//1 43//1
f 31//1 36//1 90//1 89//1
f 36//1 27//1 67//1 68//1 95//1 90//1
f 26//1 40//1 91//1 92//1 84//1 48//1 63//1 65//1 64//1
f 40//1 31//1 89//1 94//1 93//1 91//1
f 45//1 59//1 55//1
f 46//1 71//1 50//1 57//1 52//1
f 50//1 51//1 58//1 57//1
f 51//1 49//1 56//1 58//1
f 61//1 59//1 45//1
f 52//1 60//1 46//1
f 45//1 66//1 63//1 48//1 61//1
f 68//1 67//1 41//1
f 48//1 86//1 44//1
f 44//1 86//1 85//1
f 89//1 90//1 47//1 44//1 85//1
f 90//1 95//1 47//1
f 95//1 68//1 47//1
f 41//1 70//1 68//1
usemtl 4CAF50
f 50//1 37//1 29//1 42//1
f 39//1 49//1 38//1 28//1
f 51//1 33//1 38//1 49//1
f 51//1 50//1 42//1 33//1
f 71//1 75//1 74//1 73//1 72//1 37//1 50//1
f 39//1 83//1 82//1 81//1 80//1 79//1 78//1 77//1 76//1 49//1
usemtl 8BC34A
f 35//1 63//1 66//1 30//1
f 30//1 45//1 76//1 77//1 78//1 79//1 80//1 81//1 82//1 83//1 39//1
f 46//1 32//1 72//1 73//1 74//1 75//1 71//1
f 64//1 65//1 63//1 35//1
f 46//1 69//1 32//1
f 32//1 69//1 70//1 41//1
f 30//1 66//1 45//1
