# Blender v2.93.1 OBJ File: ''
# www.blender.org
mtllib plate_oval_001.mtl
o plate_oval.001_Cylinder.100
v 1.055172 0.230763 -2.653504
v -1.055172 0.230763 -2.653504
v 4.498741 0.230764 -1.503251
v 3.006502 0.230764 -2.249370
v 5.307008 0.230764 0.527586
v 5.307008 0.230764 -0.527586
v 3.006502 0.230764 2.249370
v 4.498741 0.230764 1.503251
v -1.055172 0.230764 2.653504
v 1.055172 0.230764 2.653504
v -4.498740 0.230764 1.503251
v -3.006502 0.230764 2.249370
v -5.307008 0.230764 -0.527586
v -5.307008 0.230764 0.527586
v -3.006502 0.230764 -2.249370
v -4.498741 0.230764 -1.503251
v 1.162457 -0.020624 -1.861371
v -1.162457 -0.020624 -1.861371
v 3.681365 -0.020624 -0.937826
v 2.037403 -0.020624 -1.694550
v 4.555443 0.311266 -1.521843
v 3.043686 0.311266 -2.277721
v 1.068974 0.311265 -2.686698
v -1.068973 0.311265 -2.686698
v 4.043780 -0.020624 0.535084
v 4.043780 -0.020624 -0.535084
v 5.373396 0.311266 0.534487
v 5.373396 0.311266 -0.534487
v 2.037403 -0.020624 1.694549
v 3.681365 -0.020624 0.937826
v 3.043686 0.311266 2.277721
v 4.555443 0.311266 1.521843
v -1.162457 -0.020624 1.861371
v 1.162457 -0.020624 1.861371
v -1.068974 0.311266 2.686698
v 1.068973 0.311266 2.686698
v -3.681365 -0.020624 0.937826
v -2.037402 -0.020624 1.694550
v -4.555442 0.311266 1.521843
v -3.043685 0.311266 2.277721
v -4.043779 -0.020624 -0.535084
v -4.043779 -0.020624 0.535084
v -5.373396 0.311266 -0.534487
v -5.373395 0.311266 0.534487
v -2.037403 -0.020624 -1.694550
v -3.681365 -0.020624 -0.937826
v -3.043687 0.311266 -2.277721
v -4.555443 0.311266 -1.521843
v -0.916515 -0.138819 -1.904529
v 0.916516 -0.138819 -1.904529
v 3.341485 -0.138819 -1.022668
v 2.045336 -0.138819 -1.670743
v 3.809057 -0.138819 -0.458258
v 3.809057 -0.138818 0.458257
v 3.341485 -0.138818 1.022667
v 2.045336 -0.138818 1.670742
v -0.916516 -0.138818 1.904528
v 0.916515 -0.138818 1.904528
v -3.341484 -0.138818 1.022667
v -2.045336 -0.138818 1.670742
v -3.809057 -0.138819 -0.458258
v -3.809057 -0.138818 0.458257
v -3.341484 -0.138819 -1.022668
v -2.045336 -0.138819 -1.670743
v -3.456273 -0.276712 -1.057800
v -2.115598 -0.276712 -1.728137
v -0.948000 -0.276712 -1.969955
v 0.948000 -0.276712 -1.969955
v 3.939908 -0.276712 -0.474001
v 3.939908 -0.276711 0.474000
v 3.456273 -0.276711 1.057798
v 2.115598 -0.276711 1.728136
v 3.456273 -0.276712 -1.057800
v 2.115598 -0.276712 -1.728137
v -0.948000 -0.276711 1.969953
v 0.948000 -0.276711 1.969953
v -3.456273 -0.276711 1.057798
v -2.115598 -0.276711 1.728136
v -3.939907 -0.276712 -0.474001
v -3.939907 -0.276711 0.473999
v -3.260988 -0.276712 -0.978087
v -1.996064 -0.276712 -1.597909
v -0.894436 -0.276712 -1.821504
v 0.894437 -0.276712 -1.821504
v 3.717298 -0.276712 -0.438281
v 3.717298 -0.276712 0.438280
v 3.260989 -0.276711 0.978086
v 1.996064 -0.276711 1.597908
v 3.260989 -0.276712 -0.978087
v 1.996064 -0.276712 -1.597909
v -0.894437 -0.276711 1.821503
v 0.894437 -0.276711 1.821503
v -3.260988 -0.276711 0.978086
v -1.996064 -0.276711 1.597908
v -3.717297 -0.276712 -0.438281
v -3.717297 -0.276712 0.438280
v -2.055831 -0.311266 1.663022
v -0.921218 -0.311266 1.895728
v -3.358630 -0.311266 1.017942
v -3.828602 -0.311266 0.456140
v -3.828602 -0.311266 -0.456141
v -2.055831 -0.311266 -1.663023
v -3.358630 -0.311266 -1.017943
v 2.055831 -0.311266 -1.663023
v 0.921219 -0.311266 -1.895729
v -0.921218 -0.311266 -1.895729
v 3.828603 -0.311266 0.456140
v 3.828603 -0.311266 -0.456141
v 3.358631 -0.311266 -1.017943
v 2.055831 -0.311266 1.663022
v 3.358631 -0.311266 1.017942
v 0.921218 -0.311266 1.895728
v -1.629419 -0.052556 -0.488720
v -0.997374 -0.052556 -0.798426
v -0.446923 -0.052556 -0.910150
v 0.446924 -0.052556 -0.910150
v 1.857423 -0.052556 -0.218995
v 1.857423 -0.052556 0.218997
v 1.629419 -0.052556 0.488721
v 0.997374 -0.052556 0.798428
v 1.629419 -0.052556 -0.488720
v 0.997374 -0.052556 -0.798426
v -0.446923 -0.052556 0.910152
v 0.446923 -0.052556 0.910152
v -1.629419 -0.052556 0.488721
v -0.997373 -0.052556 0.798428
v -1.857422 -0.052556 -0.218995
v -1.857422 -0.052556 0.218997
vt 0.030280 0.872270
vt 0.030280 0.872270
vt 0.030280 0.872270
vt 0.030280 0.872270
vt 0.030280 0.872270
vt 0.030280 0.872270
vt 0.030280 0.872270
vt 0.030280 0.872270
vt 0.030280 0.872270
vt 0.030280 0.872270
vt 0.030280 0.872270
vt 0.030280 0.872270
vt 0.030280 0.872270
vt 0.030280 0.872270
vt 0.030280 0.872270
vt 0.030280 0.872270
vt 0.030280 0.872270
vt 0.030280 0.872270
vt 0.030280 0.872270
vt 0.030280 0.872270
vt 0.030280 0.872270
vt 0.030280 0.872270
vt 0.030280 0.872270
vt 0.030280 0.872270
vt 0.030280 0.872270
vt 0.030280 0.872270
vt 0.030280 0.872270
vt 0.030280 0.872270
vt 0.030280 0.872270
vt 0.030280 0.872270
vt 0.030280 0.872270
vt 0.030280 0.872270
vt 0.030280 0.872270
vt 0.030280 0.872270
vt 0.030280 0.872270
vt 0.030280 0.872270
vt 0.030280 0.872270
vt 0.030280 0.872270
vt 0.030280 0.872270
vt 0.030280 0.872270
vt 0.030280 0.872270
vt 0.030280 0.872270
vt 0.030280 0.872270
vt 0.030280 0.872270
vt 0.030280 0.872270
vt 0.030280 0.872270
vt 0.030280 0.872270
vt 0.030280 0.872270
vt 0.030280 0.872270
vt 0.030280 0.872270
vt 0.030280 0.872270
vt 0.030280 0.872270
vt 0.030280 0.872270
vt 0.030280 0.872270
vt 0.030280 0.872270
vt 0.030280 0.872270
vt 0.030280 0.872270
vt 0.030280 0.872270
vt 0.030280 0.872270
vt 0.030280 0.872270
vt 0.030280 0.872270
vt 0.030280 0.872270
vt 0.030280 0.872270
vt 0.030280 0.872270
vt 0.030280 0.872270
vt 0.030280 0.872270
vt 0.030280 0.872270
vt 0.030280 0.872270
vt 0.030280 0.872270
vt 0.030280 0.872270
vt 0.030280 0.872270
vt 0.030280 0.872270
vt 0.030280 0.872270
vt 0.030280 0.872270
vt 0.030280 0.872270
vt 0.030280 0.872270
vt 0.030280 0.872270
vt 0.030280 0.872270
vt 0.030280 0.872270
vt 0.030280 0.872270
vt 0.030280 0.872270
vt 0.030280 0.872270
vt 0.030280 0.872270
vt 0.030280 0.872270
vt 0.030280 0.872270
vt 0.030280 0.872270
vt 0.030280 0.872270
vt 0.030280 0.872270
vt 0.030280 0.872270
vt 0.030280 0.872270
vt 0.030280 0.872270
vt 0.030280 0.872270
vt 0.030280 0.872270
vt 0.030280 0.872270
vt 0.030280 0.872270
vt 0.030280 0.872270
vt 0.030280 0.872270
vt 0.030280 0.872270
vt 0.030280 0.872270
vt 0.030280 0.872270
vt 0.030280 0.872270
vt 0.030280 0.872270
vt 0.030280 0.872270
vt 0.030280 0.872270
vt 0.030280 0.872270
vt 0.030280 0.872270
vt 0.030280 0.872270
vt 0.030280 0.872270
vt 0.030280 0.872270
vt 0.030280 0.872270
vt 0.030280 0.872270
vt 0.030280 0.872270
vt 0.030280 0.872270
vt 0.030280 0.872270
vt 0.030280 0.872270
vt 0.030280 0.872270
vt 0.030280 0.872270
vt 0.030280 0.872270
vt 0.030280 0.872270
vt 0.030280 0.872270
vt 0.030280 0.872270
vt 0.030280 0.872270
vt 0.030280 0.872270
vt 0.030280 0.872270
vt 0.030280 0.872270
vt 0.030280 0.872270
vt 0.030280 0.872270
vt 0.030280 0.872270
vn 0.1865 -0.9429 -0.2760
vn 0.2066 -0.9502 -0.2332
vn 0.2358 -0.9691 -0.0723
vn 0.2334 -0.9663 -0.1088
vn -0.0424 -0.8990 0.4358
vn -0.0465 -0.8992 0.4351
vn -0.1424 -0.9244 0.3539
vn -0.1115 -0.9111 0.3968
vn 0.0973 0.9278 0.3602
vn 0.0433 0.9243 0.3792
vn 0.0335 0.9252 0.3779
vn 0.1271 0.9374 0.3243
vn -0.2385 0.9639 -0.1182
vn -0.1816 0.9482 -0.2608
vn -0.1995 0.9501 -0.2400
vn -0.2403 0.9680 -0.0729
vn -0.0973 0.9278 -0.3602
vn -0.0433 0.9243 -0.3792
vn -0.0335 0.9252 -0.3779
vn -0.1271 0.9374 -0.3243
vn 0.0433 0.9243 -0.3792
vn 0.0973 0.9278 -0.3602
vn 0.1271 0.9374 -0.3243
vn 0.0335 0.9252 -0.3779
vn 0.1816 0.9482 -0.2608
vn 0.2385 0.9639 -0.1182
vn 0.2403 0.9680 -0.0729
vn 0.1995 0.9501 -0.2400
vn 0.2385 0.9639 0.1182
vn 0.1816 0.9482 0.2608
vn 0.1995 0.9501 0.2400
vn 0.2403 0.9680 0.0729
vn -0.1816 0.9482 0.2608
vn -0.2385 0.9639 0.1182
vn -0.2403 0.9680 0.0729
vn -0.1995 0.9501 0.2400
vn -0.0433 0.9243 0.3792
vn -0.0973 0.9278 0.3602
vn -0.1271 0.9374 0.3243
vn -0.0335 0.9252 0.3779
vn -0.1865 -0.9429 0.2760
vn -0.2066 -0.9502 0.2332
vn -0.2358 -0.9691 0.0723
vn -0.2334 -0.9663 0.1088
vn 0.2750 -0.4299 -0.8600
vn 0.0865 -0.3924 -0.9157
vn 0.1004 -0.3939 -0.9136
vn 0.3128 -0.4408 -0.8414
vn -0.1115 -0.9111 -0.3968
vn -0.1424 -0.9244 -0.3539
vn -0.0465 -0.8992 -0.4351
vn -0.0424 -0.8990 -0.4358
vn 0.0865 -0.3924 0.9157
vn 0.2750 -0.4299 0.8600
vn 0.3128 -0.4408 0.8414
vn 0.1004 -0.3939 0.9136
vn -0.2334 -0.9663 -0.1088
vn -0.2358 -0.9691 -0.0723
vn -0.2066 -0.9502 -0.2332
vn -0.1865 -0.9429 -0.2760
vn 0.1115 -0.9111 0.3968
vn 0.1424 -0.9244 0.3539
vn 0.0465 -0.8992 0.4351
vn 0.0424 -0.8990 0.4358
vn -0.0000 1.0000 -0.0000
vn 0.2334 -0.9663 0.1088
vn 0.2358 -0.9691 0.0723
vn 0.2066 -0.9502 0.2332
vn 0.1865 -0.9429 0.2760
vn -0.0865 -0.3924 -0.9157
vn -0.2750 -0.4299 -0.8600
vn -0.3128 -0.4408 -0.8414
vn -0.1004 -0.3939 -0.9136
vn 0.7244 -0.6228 -0.2955
vn 0.5005 -0.5135 -0.6971
vn 0.5511 -0.5359 -0.6397
vn 0.7380 -0.6295 -0.2431
vn -0.7244 -0.6228 0.2955
vn -0.5005 -0.5135 0.6971
vn -0.5511 -0.5359 0.6397
vn -0.7380 -0.6295 0.2431
vn 0.5005 -0.5135 0.6971
vn 0.7244 -0.6228 0.2955
vn 0.7380 -0.6295 0.2431
vn 0.5511 -0.5359 0.6397
vn -0.2750 -0.4299 0.8600
vn -0.0865 -0.3924 0.9157
vn -0.1004 -0.3939 0.9136
vn -0.3128 -0.4408 0.8414
vn -0.5005 -0.5135 -0.6971
vn -0.7244 -0.6228 -0.2955
vn -0.7380 -0.6295 -0.2431
vn -0.5511 -0.5359 -0.6397
vn 0.0465 -0.8992 -0.4351
vn 0.0424 -0.8990 -0.4358
vn 0.1115 -0.9111 -0.3968
vn 0.1424 -0.9244 -0.3539
vn 0.4753 0.5671 0.6727
vn 0.2658 0.4828 0.8344
vn 0.3036 0.4938 0.8148
vn 0.5281 0.5942 0.6066
vn 0.0472 -0.9106 -0.4106
vn 0.0010 -0.9993 0.0373
vn 0.1168 -0.9169 -0.3817
vn 0.0355 -0.9098 -0.4135
vn 0.6805 0.6776 0.2788
vn 0.6931 0.6837 0.2283
vn -0.2658 0.4828 0.8344
vn -0.4753 0.5671 0.6727
vn -0.5281 0.5942 0.6066
vn -0.3036 0.4938 0.8148
vn -0.6805 0.6776 0.2788
vn -0.6931 0.6837 0.2283
vn -0.2658 0.4828 -0.8344
vn -0.0818 0.4424 -0.8931
vn -0.1001 0.4451 -0.8899
vn -0.3036 0.4938 -0.8148
vn 0.2658 0.4828 -0.8344
vn 0.4753 0.5671 -0.6727
vn 0.5281 0.5942 -0.6066
vn 0.3036 0.4938 -0.8148
vn -0.6805 0.6776 -0.2788
vn -0.6931 0.6837 -0.2283
vn -0.4753 0.5671 -0.6727
vn -0.5281 0.5942 -0.6066
vn 0.6805 0.6776 -0.2788
vn 0.6931 0.6837 -0.2283
vn 0.0818 0.4424 -0.8931
vn 0.1001 0.4451 -0.8899
vn 0.0818 0.4424 0.8931
vn 0.1001 0.4451 0.8899
vn -0.0818 0.4424 0.8931
vn -0.1001 0.4451 0.8899
vn -0.1017 -0.9883 -0.1136
vn -0.0716 -0.9801 -0.1853
vn -0.0312 -0.9935 -0.1099
vn -0.0521 -0.9953 -0.0822
vn -0.0151 -0.9982 0.0587
vn 0.2018 -0.9321 -0.3007
vn -0.0586 -0.9976 0.0359
vn 0.2744 -0.9544 -0.1174
vn -0.0586 -0.9976 -0.0359
vn 0.2744 -0.9544 0.1174
vn -0.0151 -0.9982 -0.0587
vn 0.0010 -0.9993 -0.0373
vn 0.1168 -0.9169 0.3817
vn 0.2018 -0.9321 0.3007
vn -0.0472 -0.9106 0.4106
vn -0.0010 -0.9993 -0.0373
vn -0.1168 -0.9169 0.3817
vn -0.0355 -0.9098 0.4135
vn 0.0472 -0.9106 0.4106
vn 0.0355 -0.9098 0.4135
vn 0.0586 -0.9976 -0.0359
vn 0.0586 -0.9976 0.0359
vn -0.2744 -0.9544 -0.1174
vn -0.2744 -0.9544 0.1174
vn 0.0151 -0.9982 -0.0587
vn -0.2018 -0.9321 0.3007
vn 0.0151 -0.9982 0.0587
vn -0.0010 -0.9993 0.0373
vn -0.1168 -0.9169 -0.3817
vn -0.2018 -0.9321 -0.3007
vn -0.0472 -0.9106 -0.4106
vn -0.0355 -0.9098 -0.4135
vn 0.0476 -0.9107 0.4104
vn -0.0476 -0.9107 0.4104
vn -0.0358 -0.9099 0.4134
vn 0.0358 -0.9099 0.4134
vn 0.1397 -0.9194 0.3678
vn 0.1397 -0.9194 -0.3678
vn 0.2282 -0.9393 -0.2562
vn 0.2798 -0.9557 0.0911
vn 0.2282 -0.9393 0.2562
vn 0.2798 -0.9557 -0.0911
vn -0.1397 -0.9194 -0.3678
vn -0.0476 -0.9107 -0.4104
vn -0.0358 -0.9099 -0.4134
vn 0.0476 -0.9107 -0.4104
vn 0.0358 -0.9099 -0.4134
vn -0.2798 -0.9557 -0.0911
vn -0.2282 -0.9393 -0.2562
vn -0.2798 -0.9557 0.0911
vn -0.2282 -0.9393 0.2562
vn -0.1397 -0.9194 0.3678
vn 0.0521 -0.9953 0.0822
vn 0.0312 -0.9935 0.1099
vn 0.0094 -0.9923 0.1234
vn -0.0094 -0.9923 0.1234
vn -0.0312 -0.9935 0.1099
vn -0.0521 -0.9953 0.0822
vn -0.0695 -0.9971 0.0315
vn -0.0695 -0.9971 -0.0315
vn -0.0094 -0.9923 -0.1234
vn 0.0094 -0.9923 -0.1234
vn 0.0312 -0.9935 -0.1099
vn 0.0521 -0.9953 -0.0822
vn 0.0695 -0.9971 -0.0315
vn 0.0695 -0.9971 0.0315
vn -0.1152 -0.9926 -0.0372
vn -0.0716 -0.9801 0.1853
vn -0.1017 -0.9883 0.1136
vn -0.0274 -0.9737 -0.2261
vn 0.0274 -0.9737 -0.2261
vn 0.0716 -0.9801 -0.1853
vn 0.1017 -0.9883 -0.1136
vn 0.1152 -0.9926 -0.0372
vn 0.1152 -0.9926 0.0372
vn 0.1017 -0.9883 0.1136
vn 0.0716 -0.9801 0.1853
vn -0.0274 -0.9737 0.2261
vn 0.0274 -0.9737 0.2261
vn -0.1152 -0.9926 0.0372
usemtl Solid.178
s 1
f 51/1/1 3/2/2 6/3/3 53/4/4
f 57/5/5 9/6/6 12/7/7 60/8/8
f 45/9/9 18/10/10 24/11/11 47/12/12
f 25/13/13 30/14/14 32/15/15 27/16/16
f 29/17/17 34/18/18 36/19/19 31/20/20
f 33/21/21 38/22/22 40/23/23 35/24/24
f 37/25/25 42/26/26 44/27/27 39/28/28
f 41/29/29 46/30/30 48/31/31 43/32/32
f 19/33/33 26/34/34 28/35/35 21/36/36
f 17/37/37 20/38/38 22/39/39 23/40/40
f 59/41/41 11/42/42 14/43/43 62/44/44
f 4/45/45 1/46/46 23/40/47 22/39/48
f 64/47/49 15/48/50 2/49/51 49/50/52
f 10/51/53 7/52/54 31/20/55 36/19/56
f 61/53/57 13/54/58 16/55/59 63/56/60
f 56/57/61 7/52/62 10/51/63 58/58/64
f 17/37/65 18/10/65 45/9/65 46/30/65 41/29/65 42/26/65 37/25/65 38/22/65 33/21/65 34/18/65 29/17/65 30/14/65 25/13/65 26/34/65 19/33/65 20/38/65
f 54/59/66 5/60/67 8/61/68 55/62/69
f 2/49/70 15/48/71 47/12/72 24/11/73
f 6/3/74 3/2/75 21/36/76 28/35/77
f 14/43/78 11/42/79 39/28/80 44/27/81
f 8/61/82 5/60/83 27/16/84 32/15/85
f 12/7/86 9/6/87 35/24/88 40/23/89
f 16/55/90 13/54/91 43/32/92 48/31/93
f 17/37/37 23/40/40 24/11/11 18/10/10
f 22/39/39 20/38/38 19/33/33 21/36/36
f 28/35/35 26/34/34 25/13/13 27/16/16
f 32/15/15 30/14/14 29/17/17 31/20/20
f 36/19/19 34/18/18 33/21/21 35/24/24
f 40/23/23 38/22/22 37/25/25 39/28/28
f 44/27/27 42/26/26 41/29/29 43/32/32
f 48/31/31 46/30/30 45/9/9 47/12/12
f 10/51/53 36/19/56 35/24/88 9/6/87
f 39/28/80 11/42/79 12/7/86 40/23/89
f 16/55/90 48/31/93 47/12/72 15/48/71
f 23/40/47 1/46/46 2/49/70 24/11/73
f 21/36/76 3/2/75 4/45/45 22/39/48
f 6/3/74 28/35/77 27/16/84 5/60/83
f 31/20/55 7/52/54 8/61/82 32/15/85
f 43/32/92 13/54/91 14/43/78 44/27/81
f 49/50/52 2/49/51 1/46/94 50/63/95
f 3/2/2 51/1/1 52/64/96 4/45/97
f 63/56/60 16/55/59 15/48/50 64/47/49
f 5/60/67 54/59/66 53/4/4 6/3/3
f 7/52/62 56/57/61 55/62/69 8/61/68
f 9/6/6 57/5/5 58/58/64 10/51/63
f 11/42/42 59/41/41 60/8/8 12/7/7
f 13/54/58 61/53/57 62/44/44 14/43/43
f 50/63/95 1/46/94 4/45/97 52/64/96
f 55/62/98 56/57/99 72/65/100 71/66/101
f 98/67/102 97/68/103 94/69/104 91/70/105
f 54/59/106 55/62/98 71/66/101 70/71/107
f 60/8/108 59/41/109 77/72/110 78/73/111
f 59/41/109 62/44/112 80/74/113 77/72/110
f 64/47/114 49/50/115 67/75/116 66/76/117
f 52/64/118 51/1/119 73/77/120 74/78/121
f 62/44/112 61/53/122 79/79/123 80/74/113
f 63/56/124 64/47/114 66/76/117 65/80/125
f 51/1/119 53/4/126 69/81/127 73/77/120
f 61/53/122 63/56/124 65/80/125 79/79/123
f 49/50/115 50/63/128 68/82/129 67/75/116
f 56/57/99 58/58/130 76/83/131 72/65/100
f 58/58/130 57/5/132 75/84/133 76/83/131
f 50/63/128 52/64/118 74/78/121 68/82/129
f 57/5/132 60/8/108 78/73/111 75/84/133
f 53/4/126 54/59/106 70/71/107 69/81/127
f 87/85/134 88/86/135 120/87/136 119/88/137
f 97/68/103 99/89/138 93/90/139 94/69/104
f 99/89/138 100/91/140 96/92/141 93/90/139
f 100/91/140 101/93/142 95/94/143 96/92/141
f 103/95/144 102/96/145 82/97/146 81/98/147
f 101/93/142 103/95/144 81/98/147 95/94/143
f 105/99/148 104/100/149 90/101/150 84/102/151
f 106/103/152 105/99/148 84/102/151 83/104/153
f 102/96/145 106/103/152 83/104/153 82/97/146
f 108/105/154 107/106/155 86/107/156 85/108/157
f 109/109/158 108/105/154 85/108/157 89/110/159
f 111/111/160 110/112/161 88/86/162 87/85/163
f 107/106/155 111/111/160 87/85/163 86/107/156
f 104/100/149 109/109/158 89/110/159 90/101/150
f 110/112/161 112/113/164 92/114/165 88/86/162
f 112/113/164 98/67/102 91/70/105 92/114/165
f 76/83/166 75/84/167 98/67/168 112/113/169
f 72/65/170 76/83/166 112/113/169 110/112/161
f 74/78/171 73/77/172 109/109/158 104/100/149
f 70/71/173 71/66/174 111/111/160 107/106/155
f 71/66/174 72/65/170 110/112/161 111/111/160
f 73/77/172 69/81/175 108/105/154 109/109/158
f 69/81/175 70/71/173 107/106/155 108/105/154
f 66/76/176 67/75/177 106/103/178 102/96/145
f 67/75/177 68/82/179 105/99/180 106/103/178
f 68/82/179 74/78/171 104/100/149 105/99/180
f 79/79/181 65/80/182 103/95/144 101/93/142
f 65/80/182 66/76/176 102/96/145 103/95/144
f 80/74/183 79/79/181 101/93/142 100/91/140
f 77/72/184 80/74/183 100/91/140 99/89/138
f 78/73/185 77/72/184 99/89/138 97/68/103
f 75/84/167 78/73/185 97/68/103 98/67/168
f 113/115/186 114/116/187 115/117/188 116/118/189 122/119/190 121/120/191 117/121/192 118/122/193 119/88/137 120/87/136 124/123/194 123/124/195 126/125/196 125/126/197 128/127/198 127/128/199
f 86/107/200 87/85/134 119/88/137 118/122/193
f 90/101/201 89/110/202 121/120/191 122/119/190
f 88/86/135 92/114/203 124/123/194 120/87/136
f 92/114/203 91/70/204 123/124/195 124/123/194
f 91/70/204 94/69/205 126/125/196 123/124/195
f 94/69/205 93/90/206 125/126/197 126/125/196
f 93/90/206 96/92/207 128/127/198 125/126/197
f 96/92/207 95/94/208 127/128/199 128/127/198
f 81/98/209 82/97/210 114/116/187 113/115/186
f 95/94/208 81/98/209 113/115/186 127/128/199
f 84/102/211 90/101/201 122/119/190 116/118/189
f 83/104/212 84/102/211 116/118/189 115/117/188
f 82/97/210 83/104/212 115/117/188 114/116/187
f 85/108/213 86/107/200 118/122/193 117/121/192
f 89/110/202 85/108/213 117/121/192 121/120/191
