mtllib materials.mtl
v -0.1933336 -0.7450001 0.7400002
v -0.1933336 0.6850002 0.7399998
v -0.1933336 0.6850002 0.78
v -0.1933336 -0.7450001 0.7800002
v 0.1866665 -0.7450004 0.7400005
v 0.1866665 -0.7450004 0.7800006
v 0.1866665 0.6850002 0.78
v 0.1866665 0.6850004 0.74
v -0.1933336 -0.7449999 -0.7799994
v -0.1933336 0.6850004 -0.7799999
v -0.1933336 0.6850002 -0.7399997
v -0.1933336 -0.7449999 -0.7399994
v 0.1866665 -0.7450003 -0.7799991
v 0.1866665 -0.7450003 -0.7399992
v 0.1866665 0.6850005 -0.7399999
v 0.1866665 0.6850005 -0.7799999
v -0.1833344 -0.2450002 0.7399999
v -0.1833339 -0.2450001 -0.7400001
v -0.1833339 -0.205 -0.7400001
v -0.1833344 -0.2050002 0.7399999
v 0.1866655 -0.2450002 0.7400001
v 0.1866655 -0.2050002 0.7400001
v 0.186666 -0.205 -0.7399999
v 0.186666 -0.245 -0.7399999
v -0.1833339 0.6350001 0.74
v -0.1833339 0.6349999 -0.7399999
v -0.1833339 0.675 -0.7399999
v -0.1833339 0.675 0.74
v 0.186666 0.6350001 0.7400001
v 0.186666 0.675 0.7400001
v 0.186666 0.675 -0.7399999
v 0.186666 0.6350001 -0.7399999
v -0.1833334 0.2250001 0.74
v -0.1833334 0.225 -0.7399999
v -0.1833334 0.265 -0.7399999
v -0.1833334 0.265 0.74
v 0.1866665 0.2250001 0.7400001
v 0.1866665 0.265 0.7400001
v 0.1866665 0.265 -0.7399999
v 0.1866665 0.2250001 -0.7399999
v -0.1833339 -0.6350003 0.7399999
v -0.1833334 -0.6350002 -0.7400001
v -0.1833334 -0.5950002 -0.7400001
v -0.1833339 -0.5950004 0.7399999
v 0.186666 -0.6350003 0.7400001
v 0.186666 -0.5950004 0.7400001
v 0.1866665 -0.5950001 -0.7399999
v 0.1866665 -0.6350002 -0.7399999
vn -1 7.700237E-08 -3.416234E-08
vn 1 -4.059704E-09 -1.834143E-07
vn 6.633995E-07 -1.077303E-07 -1
vn -3.692978E-07 3.521541E-08 1
vn -8.862044E-07 -1 1.192094E-07
vn -3.273564E-07 1 6.705489E-08
vn -1 7.700237E-08 -3.416234E-08
vn 1 -4.059704E-09 -1.834143E-07
vn 6.633995E-07 -1.077303E-07 -1
vn -3.692978E-07 3.521541E-08 1
vn -8.862044E-07 -1 1.192094E-07
vn -3.273564E-07 1 6.705489E-08
vn -1 -7.964921E-08 -2.924734E-07
vn 1 3.308309E-08 2.723367E-07
vn 9.429872E-08 -1 -1.227568E-07
vn -9.429875E-08 1 1.693052E-07
vn -6.295618E-07 -1.748455E-07 1
vn 3.052099E-07 1.748455E-07 -1
vn -1 -7.964923E-08 -1.176278E-07
vn 1 3.30831E-08 9.749113E-08
vn 9.429869E-08 -1 5.208876E-08
vn -9.429871E-08 1 -5.540331E-09
vn -4.547163E-07 6.237269E-14 1
vn 1.303643E-07 -2.156449E-14 -1
vn -1 -7.964923E-08 -1.176278E-07
vn 1 3.30831E-08 9.749113E-08
vn 9.429869E-08 -1 5.208876E-08
vn -9.429871E-08 1 -5.540331E-09
vn -4.547163E-07 6.237269E-14 1
vn 1.303643E-07 -2.156449E-14 -1
vn -1 -7.964917E-08 -2.924734E-07
vn 1 3.308304E-08 2.723367E-07
vn 9.429868E-08 -1 -1.227568E-07
vn -9.429871E-08 1 1.693052E-07
vn -6.295619E-07 -1.748455E-07 1
vn 3.052099E-07 1.748455E-07 -1
vt 0.07311974 0.06451745
vt -0.009997304 0.1808814
vt -0.01325225 0.1785564
vt 0.0698648 0.0621925
vt -0.07311969 0.0645173
vt -0.06986475 0.06219235
vt 0.01325228 0.1785564
vt 0.009997356 0.1808813
vt 0.1726245 0.3676095
vt 0.1896186 0.4015977
vt 0.06171547 0.4655493
vt 0.04472136 0.4315611
vt -0.1726245 0.3676095
vt -0.04472134 0.4315611
vt -0.06171547 0.4655493
vt -0.1896186 0.4015977
vt 0.04520368 0.4149718
vt 0.04897065 0.4136265
vt 0.06175147 0.4494127
vt 0.0579845 0.450758
vt -0.04520361 0.4149719
vt -0.05798441 0.4507581
vt -0.06175138 0.4494128
vt -0.0489706 0.4136266
vt 0.1968072 0.1528656
vt 0.1136902 0.2692296
vt 0.1104352 0.2669046
vt 0.1935523 0.1505407
vt -0.1968072 0.1528655
vt -0.1935522 0.1505405
vt -0.1104352 0.2669045
vt -0.1136901 0.2692295
vt 0.1726244 0.3676094
vt 0.1896186 0.4015976
vt 0.0617154 0.4655492
vt 0.04472129 0.431561
vt -0.1726244 0.3676095
vt -0.04472131 0.4315611
vt -0.06171542 0.4655493
vt -0.1896186 0.4015977
vt -0.09794106 0.466095
vt -0.09417409 0.4647496
vt -0.08139327 0.5005358
vt -0.08516024 0.5018812
vt 0.09794114 0.466095
vt 0.08516035 0.5018812
vt 0.08139338 0.5005358
vt 0.09417415 0.4647497
vt 0.04405794 0.1052042
vt 0.1644904 0.1912275
vt 0.1621655 0.1944824
vt 0.04173299 0.1084591
vt -0.04405792 0.1052042
vt -0.04173296 0.1084591
vt -0.1621655 0.1944824
vt -0.1644904 0.1912275
vt 0.04553993 0.4159135
vt 0.0579844 0.4507579
vt -0.08139338 0.5005358
vt -0.09383785 0.4656914
vt -0.04553993 0.4159135
vt 0.09383786 0.4656914
vt 0.08139339 0.5005358
vt -0.05798439 0.4507579
vt -0.1283503 0.3908646
vt -0.1247726 0.3926534
vt -0.1413195 0.4257472
vt -0.1448972 0.4239584
vt 0.1283503 0.3908646
vt 0.1448972 0.4239584
vt 0.1413195 0.4257472
vt 0.1247726 0.3926534
vt -0.007091092 0.1768127
vt 0.1133415 0.2628359
vt 0.1110165 0.2660909
vt -0.009416044 0.1800676
vt 0.007091113 0.1768127
vt 0.009416064 0.1800676
vt -0.1110165 0.2660909
vt -0.1133414 0.2628359
vt 0.04553995 0.4159136
vt 0.0579844 0.450758
vt -0.08139341 0.5005358
vt -0.09383785 0.4656914
vt -0.04553995 0.4159136
vt 0.09383784 0.4656914
vt 0.08139341 0.5005358
vt -0.0579844 0.450758
vt -0.0496407 0.4302194
vt -0.04606299 0.4320083
vt -0.0626099 0.465102
vt -0.0661876 0.4633132
vt 0.0496407 0.4302194
vt 0.06618759 0.4633132
vt 0.06260989 0.465102
vt 0.04606298 0.4320083
vt 0.01673968 0.1434496
vt 0.1371722 0.2294729
vt 0.1348473 0.2327278
vt 0.01441473 0.1467045
vt -0.01673966 0.1434496
vt -0.01441471 0.1467045
vt -0.1348472 0.2327278
vt -0.1371722 0.2294729
vt 0.04553996 0.4159136
vt 0.05798441 0.4507581
vt -0.0813934 0.5005358
vt -0.09383784 0.4656914
vt -0.04553997 0.4159136
vt 0.09383783 0.4656914
vt 0.08139339 0.5005358
vt -0.05798442 0.4507581
vt -0.08631223 0.4118837
vt -0.08273453 0.4136725
vt -0.09928142 0.4467663
vt -0.1028591 0.4449775
vt 0.08631223 0.4118837
vt 0.1028591 0.4449775
vt 0.09928142 0.4467664
vt 0.08273452 0.4136725
vt 0.06672625 0.07346855
vt 0.1871588 0.1594919
vt 0.1848338 0.1627468
vt 0.06440131 0.07672348
vt -0.06672623 0.07346855
vt -0.06440128 0.07672348
vt -0.1848338 0.1627468
vt -0.1871587 0.1594919
vt 0.04553995 0.4159135
vt 0.05798442 0.450758
vt -0.08139337 0.5005358
vt -0.09383783 0.4656914
vt -0.04553995 0.4159135
vt 0.09383783 0.4656914
vt 0.08139337 0.5005358
vt -0.05798442 0.450758
vt -0.163233 0.3734232
vt -0.1596553 0.3752121
vt -0.1762022 0.4083059
vt -0.1797799 0.406517
vt 0.163233 0.3734233
vt 0.1797799 0.4065171
vt 0.1762022 0.4083059
vt 0.1596553 0.3752121
o group537364515
g mesh537364515
usemtl mat23
f 4/4/1 3/3/1 2/2/1 1/1/1
f 8/8/2 7/7/2 6/6/2 5/5/2
f 2/12/3 8/11/3 5/10/3 1/9/3
f 6/16/4 7/15/4 3/14/4 4/13/4
f 5/20/5 6/19/5 4/18/5 1/17/5
f 3/24/6 7/23/6 8/22/6 2/21/6
o group1800173757
g mesh1800173757
usemtl mat23
f 12/28/7 11/27/7 10/26/7 9/25/7
f 16/32/8 15/31/8 14/30/8 13/29/8
f 10/36/9 16/35/9 13/34/9 9/33/9
f 14/40/10 15/39/10 11/38/10 12/37/10
f 13/44/11 14/43/11 12/42/11 9/41/11
f 11/48/12 15/47/12 16/46/12 10/45/12
o group1417189614
g mesh1417189614
usemtl mat23
f 20/52/13 19/51/13 18/50/13 17/49/13
f 24/56/14 23/55/14 22/54/14 21/53/14
f 18/60/15 24/59/15 21/58/15 17/57/15
f 22/64/16 23/63/16 19/62/16 20/61/16
f 21/68/17 22/67/17 20/66/17 17/65/17
f 19/72/18 23/71/18 24/70/18 18/69/18
o group250719238
g mesh250719238
usemtl mat23
f 28/76/19 27/75/19 26/74/19 25/73/19
f 32/80/20 31/79/20 30/78/20 29/77/20
f 26/84/21 32/83/21 29/82/21 25/81/21
f 30/88/22 31/87/22 27/86/22 28/85/22
f 29/92/23 30/91/23 28/90/23 25/89/23
f 27/96/24 31/95/24 32/94/24 26/93/24
o group500013617
g mesh500013617
usemtl mat23
f 36/100/25 35/99/25 34/98/25 33/97/25
f 40/104/26 39/103/26 38/102/26 37/101/26
f 34/108/27 40/107/27 37/106/27 33/105/27
f 38/112/28 39/111/28 35/110/28 36/109/28
f 37/116/29 38/115/29 36/114/29 33/113/29
f 35/120/30 39/119/30 40/118/30 34/117/30
o group2109013487
g mesh2109013487
usemtl mat23
f 44/124/31 43/123/31 42/122/31 41/121/31
f 48/128/32 47/127/32 46/126/32 45/125/32
f 42/132/33 48/131/33 45/130/33 41/129/33
f 46/136/34 47/135/34 43/134/34 44/133/34
f 45/140/35 46/139/35 44/138/35 41/137/35
f 43/144/36 47/143/36 48/142/36 42/141/36
