# Blender v2.78 (sub 0) OBJ File: '19.blend'
# www.blender.org
mtllib Modern_Rug_01.mtl
o Modern_rug_Plane.004
v -3.174215 0.000000 4.773652
v 3.174215 0.000000 4.773652
v -3.174215 0.000000 -4.773652
v 3.174215 0.000000 -4.773652
v -1.587107 0.000000 4.773652
v 0.000000 0.000000 4.773652
v 1.587107 0.000000 4.773652
v 1.587107 0.000000 -4.773652
v -0.000000 0.000000 -4.773652
v -1.587107 0.000000 -4.773652
v -3.174215 0.000000 -3.182435
v -3.174215 0.000000 -1.591217
v -3.174215 0.000000 0.000000
v -3.174215 0.000000 1.591217
v -3.174215 0.000000 3.182435
v 3.174215 0.000000 3.182435
v 3.174215 0.000000 1.591217
v 3.174215 0.000000 0.000000
v 3.174215 0.000000 -1.591217
v 3.174215 0.000000 -3.182435
v -1.587107 0.000000 3.182435
v -1.587107 0.000000 1.591217
v -1.587107 0.000000 0.000000
v -1.587107 0.000000 -1.591217
v -1.587107 0.000000 -3.182435
v 0.000000 0.000000 3.182435
v 0.000000 0.000000 1.591217
v -0.000000 0.000000 0.000000
v -0.000000 0.000000 -1.591217
v -0.000000 0.000000 -3.182435
v 1.587107 0.000000 3.182435
v 1.587107 0.000000 1.591217
v 1.587107 0.000000 0.000000
v 1.587107 0.000000 -1.591217
v 1.587107 0.000000 -3.182435
v 2.380661 0.000000 4.773652
v 2.380661 0.000000 -4.773652
v 2.380661 0.000000 3.182435
v 2.380661 0.000000 1.591217
v 2.380661 0.000000 0.000000
v 2.380661 0.000000 -1.591217
v 2.380661 0.000000 -3.182435
v 0.793554 0.000000 4.773652
v 0.793554 0.000000 -4.773652
v 0.793554 0.000000 3.182435
v 0.793554 0.000000 1.591217
v 0.793554 0.000000 0.000000
v 0.793554 0.000000 -1.591217
v 0.793554 0.000000 -3.182435
v -0.793554 0.000000 4.773652
v -0.793554 0.000000 -4.773652
v -0.793554 0.000000 3.182435
v -0.793554 0.000000 1.591217
v -0.793554 0.000000 0.000000
v -0.793554 0.000000 -1.591217
v -0.793554 0.000000 -3.182435
v -2.380661 0.000000 -4.773652
v -2.380661 0.000000 4.773652
v -2.380661 0.000000 3.182435
v -2.380661 0.000000 1.591217
v -2.380661 0.000000 0.000000
v -2.380661 0.000000 -1.591217
v -2.380661 0.000000 -3.182435
v -1.983884 0.000000 4.773652
v -1.983884 0.000000 -4.773652
v -1.983884 0.000000 3.182435
v -1.983884 0.000000 1.591217
v -1.983884 0.000000 0.000000
v -1.983884 0.000000 -1.591217
v -1.983884 0.000000 -3.182435
v 1.190331 0.000000 4.773652
v 1.190331 0.000000 -4.773652
v 1.190331 0.000000 3.182435
v 1.190331 0.000000 1.591217
v 1.190331 0.000000 0.000000
v 1.190331 0.000000 -1.591217
v 1.190331 0.000000 -3.182435
v 0.396777 0.000000 -4.773652
v 0.396777 0.000000 3.182435
v 0.396777 0.000000 1.591217
v 0.396777 0.000000 0.000000
v 0.396777 0.000000 -1.591217
v 0.396777 0.000000 -3.182435
v 0.396777 0.000000 4.773652
v 2.777438 0.000000 4.773652
v 2.777438 0.000000 -4.773652
v 2.777438 0.000000 3.182435
v 2.777438 0.000000 1.591217
v 2.777438 0.000000 0.000000
v 2.777438 0.000000 -1.591217
v 2.777438 0.000000 -3.182435
v -2.777438 0.000000 -4.773652
v -2.777438 0.000000 3.182435
v -2.777438 0.000000 1.591217
v -2.777438 0.000000 0.000000
v -2.777438 0.000000 -1.591217
v -2.777438 0.000000 -3.182435
v -2.777438 0.000000 4.773652
v -2.975827 0.000000 -4.773652
v -2.975827 0.000000 3.182435
v -2.975827 0.000000 1.591217
v -2.975827 0.000000 0.000000
v -2.975827 0.000000 -1.591217
v -2.975827 0.000000 -3.182435
v -2.975827 0.000000 4.773652
v 0.198388 0.000000 -4.773652
v 0.198388 0.000000 3.182435
v 0.198388 0.000000 1.591217
v 0.198388 0.000000 0.000000
v 0.198388 0.000000 -1.591217
v 0.198388 0.000000 -3.182435
v 0.198389 0.000000 4.773652
v 2.975827 0.000000 4.773652
v 2.975827 0.000000 -4.773652
v 2.975827 0.000000 3.182435
v 2.975827 0.000000 1.591217
v 2.975827 0.000000 0.000000
v 2.975827 0.000000 -1.591217
v 2.975827 0.000000 -3.182435
v -3.174215 0.038325 3.182435
v -3.174215 0.038325 4.773652
v 2.975827 0.038325 4.773652
v 3.174215 0.038325 4.773652
v 3.174215 0.038325 -3.182435
v 3.174215 0.038325 -4.773652
v -2.975827 0.038325 -4.773652
v -3.174215 0.038325 -4.773652
v -1.983884 0.038325 4.773652
v -1.587107 0.038325 4.773652
v -0.793554 0.038325 4.773652
v 0.000000 0.038325 4.773652
v 1.190331 0.038325 4.773652
v 1.587107 0.038325 4.773652
v 2.380661 0.038325 -4.773652
v 1.587107 0.038325 -4.773652
v 0.198388 0.038325 -4.773652
v -0.000000 0.038325 -4.773652
v -0.793554 0.038325 -4.773652
v -1.587107 0.038325 -4.773652
v -1.587107 0.038325 -3.182435
v -0.000000 0.038325 -3.182435
v 1.587107 0.038325 -3.182435
v -3.174215 0.038325 -3.182435
v -3.174215 0.038325 -1.591217
v -3.174215 0.038325 0.000000
v -3.174215 0.038325 1.591217
v 3.174215 0.038325 3.182435
v 3.174215 0.038325 1.591217
v 3.174215 0.038325 0.000000
v 3.174215 0.038325 -1.591217
v -1.587107 0.038325 3.182435
v -1.587107 0.038325 1.591217
v -1.587107 0.038325 0.000000
v -1.587107 0.038325 -1.591217
v 0.000000 0.038325 3.182435
v 0.000000 0.038325 1.591217
v -0.000000 0.038325 0.000000
v -0.000000 0.038325 -1.591217
v 1.587107 0.038325 3.182435
v 1.587107 0.038325 1.591217
v 1.587107 0.038325 0.000000
v 1.587107 0.038325 -1.591217
v 0.198388 0.038325 3.182435
v 0.198388 0.038325 1.591217
v 0.198388 0.038325 0.000000
v 0.198388 0.038325 -1.591217
v 0.198388 0.038325 -3.182435
v -0.793554 0.038325 3.182435
v -0.793554 0.038325 1.591217
v -0.793554 0.038325 0.000000
v -0.793554 0.038325 -1.591217
v -0.793554 0.038325 -3.182435
v -2.975827 0.038325 3.182435
v -2.975827 0.038325 1.591217
v -2.975827 0.038325 0.000000
v -2.975827 0.038325 -1.591217
v -2.975827 0.038325 -3.182435
v 2.380661 0.038325 3.182435
v 2.380661 0.038325 1.591217
v 2.380661 0.038325 0.000000
v 2.380661 0.038325 -1.591217
v 2.380661 0.038325 -3.182435
v 2.380661 0.038325 4.773652
v 2.777438 0.038325 -4.773652
v 2.777438 0.038325 3.182435
v 2.777438 0.038325 1.591217
v 2.777438 0.038325 0.000000
v 2.777438 0.038325 -1.591217
v 2.777438 0.038325 -3.182435
v 0.396777 0.038325 4.773652
v 0.793554 0.038325 4.773652
v 1.190331 0.038325 -4.773652
v 0.793554 0.038325 -4.773652
v 1.190331 0.038325 3.182435
v 0.793554 0.038325 3.182435
v 1.190331 0.038325 1.591217
v 0.793554 0.038325 1.591217
v 1.190331 0.038325 0.000000
v 0.793554 0.038325 0.000000
v 1.190331 0.038325 -1.591217
v 0.793554 0.038325 -1.591217
v 1.190331 0.038325 -3.182435
v 0.793554 0.038325 -3.182435
v -1.983884 0.038325 -4.773652
v -2.380661 0.038325 -4.773652
v -2.777438 0.038325 4.773652
v -2.380661 0.038325 4.773652
v -1.983884 0.038325 3.182435
v -2.380661 0.038325 3.182435
v -1.983884 0.038325 1.591217
v -2.380661 0.038325 1.591217
v -1.983884 0.038325 0.000000
v -2.380661 0.038325 0.000000
v -1.983884 0.038325 -1.591217
v -2.380661 0.038325 -1.591217
v -1.983884 0.038325 -3.182435
v -2.380661 0.038325 -3.182435
v 0.396777 0.038325 -4.773652
v 0.396777 0.038325 3.182435
v 0.396777 0.038325 1.591217
v 0.396777 0.038325 0.000000
v 0.396777 0.038325 -1.591217
v 0.396777 0.038325 -3.182435
v 0.198389 0.038325 4.773652
v 2.777438 0.038325 4.773652
v 2.975827 0.038325 -4.773652
v 2.975827 0.038325 3.182435
v 2.975827 0.038325 1.591217
v 2.975827 0.038325 0.000000
v 2.975827 0.038325 -1.591217
v 2.975827 0.038325 -3.182435
v -2.777438 0.038325 -4.773652
v -2.777438 0.038325 3.182435
v -2.777438 0.038325 1.591217
v -2.777438 0.038325 0.000000
v -2.777438 0.038325 -1.591217
v -2.777438 0.038325 -3.182435
v -2.975827 0.038325 4.773652
v -3.313655 -0.000844 3.322634
v -3.313655 -0.000844 4.983951
v 3.107321 -0.000844 4.983951
v 3.314450 -0.000844 4.983951
v 3.314450 -0.000844 -3.322634
v 3.314450 -0.000844 -4.983951
v -3.106526 -0.000844 -4.983951
v -3.313655 -0.000844 -4.983951
v -2.070885 -0.000844 4.983951
v -1.656629 -0.000844 4.983951
v -0.828116 -0.000844 4.983951
v 0.000397 -0.000844 4.983951
v 1.243167 -0.000844 4.983951
v 1.657423 -0.000844 4.983951
v 2.485936 -0.000844 -4.983951
v 1.657423 -0.000844 -4.983951
v 0.207525 -0.000844 -4.983951
v 0.000397 -0.000844 -4.983951
v -0.828116 -0.000844 -4.983951
v -1.656629 -0.000844 -4.983951
v -3.313655 -0.000844 -3.322634
v -3.313655 -0.000844 -1.661317
v -3.313655 -0.000844 0.000000
v -3.313655 -0.000844 1.661317
v 3.314450 -0.000844 3.322634
v 3.314450 -0.000844 1.661317
v 3.314450 -0.000844 0.000000
v 3.314450 -0.000844 -1.661317
v 2.485936 -0.000844 4.983951
v 2.900193 -0.000844 -4.983951
v 0.414654 -0.000844 4.983951
v 0.828910 -0.000844 4.983951
v 1.243167 -0.000844 -4.983951
v 0.828910 -0.000844 -4.983951
v -2.070885 -0.000844 -4.983951
v -2.485142 -0.000844 -4.983951
v -2.899398 -0.000844 4.983951
v -2.485142 -0.000844 4.983951
v 0.414654 -0.000844 -4.983951
v 0.207526 -0.000844 4.983951
v 2.900193 -0.000844 4.983951
v 3.107321 -0.000844 -4.983951
v -2.899398 -0.000844 -4.983951
v -3.106526 -0.000844 4.983951
v -3.313655 0.021874 3.322634
v -3.313655 0.021874 4.983951
v 3.107321 0.021874 4.983951
v 3.314450 0.021874 4.983951
v 3.314450 0.021874 -3.322634
v 3.314450 0.021874 -4.983951
v -3.106526 0.021874 -4.983951
v -3.313655 0.021874 -4.983951
v -2.070885 0.021874 4.983951
v -1.656629 0.021874 4.983951
v -0.828116 0.021874 4.983951
v 0.000397 0.021874 4.983951
v 1.243167 0.021874 4.983951
v 1.657423 0.021874 4.983951
v 2.485936 0.021874 -4.983951
v 1.657423 0.021874 -4.983951
v 0.207525 0.021874 -4.983951
v 0.000397 0.021874 -4.983951
v -0.828116 0.021874 -4.983951
v -1.656629 0.021874 -4.983951
v -3.313655 0.021874 -3.322634
v -3.313655 0.021874 -1.661317
v -3.313655 0.021874 0.000000
v -3.313655 0.021874 1.661317
v 3.314450 0.021874 3.322634
v 3.314450 0.021874 1.661317
v 3.314450 0.021874 0.000000
v 3.314450 0.021874 -1.661317
v 2.485936 0.021874 4.983951
v 2.900193 0.021874 -4.983951
v 0.414654 0.021874 4.983951
v 0.828910 0.021874 4.983951
v 1.243167 0.021874 -4.983951
v 0.828910 0.021874 -4.983951
v -2.070885 0.021874 -4.983951
v -2.485142 0.021874 -4.983951
v -2.899398 0.021874 4.983951
v -2.485142 0.021874 4.983951
v 0.414654 0.021874 -4.983951
v 0.207526 0.021874 4.983951
v 2.900193 0.021874 4.983951
v 3.107321 0.021874 -4.983951
v -2.899398 0.021874 -4.983951
v -3.106526 0.021874 4.983951
vn 0.0000 1.0000 0.0000
vn 0.0000 -1.0000 0.0000
vn 0.0000 0.9970 0.0780
vn 0.0000 0.9970 -0.0780
vn -0.0060 -1.0000 0.0000
vn -0.1172 0.9931 0.0000
vn 0.0000 -1.0000 0.0040
vn 0.0000 -1.0000 -0.0040
vn 0.0061 -1.0000 0.0000
vn 0.0000 0.0000 1.0000
vn 0.0000 0.0000 -1.0000
vn 1.0000 0.0000 0.0000
vn -1.0000 0.0000 0.0000
vn 0.1165 0.9932 0.0000
usemtl 78909C
s off
f 216//1 140//1 139//1 204//1
f 202//1 142//1 135//1 192//1
f 132//1 133//1 159//1 194//1
f 194//1 159//1 160//1 196//1
f 198//1 161//1 162//1 200//1
f 168//1 155//1 156//1 169//1
f 169//1 156//1 157//1 170//1
f 170//1 157//1 158//1 171//1
f 171//1 158//1 141//1 172//1
f 128//1 129//1 151//1 208//1
f 210//1 152//1 153//1 212//1
f 214//1 154//1 140//1 216//1
f 122//1 123//1 147//1 227//1
f 227//1 147//1 148//1 228//1
f 228//1 148//1 149//1 229//1
f 229//1 149//1 150//1 230//1
f 230//1 150//1 124//1 231//1
f 162//1 181//1 182//1 142//1
f 161//1 180//1 181//1 162//1
f 160//1 179//1 180//1 161//1
f 159//1 178//1 179//1 160//1
f 222//1 201//1 203//1 223//1
f 221//1 199//1 201//1 222//1
f 220//1 197//1 199//1 221//1
f 219//1 195//1 197//1 220//1
f 153//1 170//1 171//1 154//1
f 151//1 168//1 169//1 152//1
f 129//1 130//1 168//1 151//1
f 140//1 172//1 138//1 139//1
f 235//1 213//1 215//1 236//1
f 233//1 209//1 211//1 234//1
f 206//1 207//1 209//1 233//1
f 237//1 217//1 205//1 232//1
f 215//1 214//1 216//1 217//1
f 213//1 212//1 214//1 215//1
f 211//1 210//1 212//1 213//1
f 209//1 208//1 210//1 211//1
f 201//1 200//1 202//1 203//1
f 197//1 196//1 198//1 199//1
f 191//1 132//1 194//1 195//1
f 203//1 202//1 192//1 193//1
f 167//1 223//1 218//1 136//1
f 224//1 190//1 219//1 163//1
f 163//1 219//1 220//1 164//1
f 165//1 221//1 222//1 166//1
f 181//1 188//1 189//1 182//1
f 179//1 186//1 187//1 180//1
f 183//1 225//1 185//1 178//1
f 182//1 189//1 184//1 134//1
f 177//1 237//1 232//1 126//1
f 238//1 206//1 233//1 173//1
f 174//1 234//1 235//1 175//1
f 176//1 236//1 237//1 177//1
f 144//1 176//1 177//1 143//1
f 145//1 175//1 176//1 144//1
f 146//1 174//1 175//1 145//1
f 120//1 173//1 174//1 146//1
f 143//1 177//1 126//1 127//1
f 158//1 166//1 167//1 141//1
f 156//1 164//1 165//1 157//1
f 131//1 224//1 163//1 155//1
f 141//1 167//1 136//1 137//1
f 187//1 229//1 230//1 188//1
f 185//1 227//1 228//1 186//1
f 225//1 122//1 227//1 185//1
f 189//1 231//1 226//1 184//1
usemtl 455A64
f 119//2 114//2 4//2 20//2
f 70//2 65//2 10//2 25//2
f 56//2 51//2 9//2 30//2
f 77//2 72//2 8//2 35//2
f 71//2 73//2 31//2 7//2
f 73//2 74//2 32//2 31//2
f 74//2 75//2 33//2 32//2
f 75//2 76//2 34//2 33//2
f 76//2 77//2 35//2 34//2
f 50//2 52//2 26//2 6//2
f 52//2 53//2 27//2 26//2
f 53//2 54//2 28//2 27//2
f 54//2 55//2 29//2 28//2
f 55//2 56//2 30//2 29//2
f 64//2 66//2 21//2 5//2
f 66//2 67//2 22//2 21//2
f 67//2 68//2 23//2 22//2
f 68//2 69//2 24//2 23//2
f 69//2 70//2 25//2 24//2
f 113//2 115//2 16//2 2//2
f 115//2 116//2 17//2 16//2
f 116//2 117//2 18//2 17//2
f 117//2 118//2 19//2 18//2
f 118//2 119//2 20//2 19//2
f 34//2 35//2 42//2 41//2
f 33//2 34//2 41//2 40//2
f 32//2 33//2 40//2 39//2
f 31//2 32//2 39//2 38//2
f 7//2 31//2 38//2 36//2
f 35//2 8//2 37//2 42//2
f 82//2 83//2 49//2 48//2
f 81//2 82//2 48//2 47//2
f 80//2 81//2 47//2 46//2
f 79//2 80//2 46//2 45//2
f 84//2 79//2 45//2 43//2
f 83//2 78//2 44//2 49//2
f 24//2 25//2 56//2 55//2
f 23//2 24//2 55//2 54//2
f 22//2 23//2 54//2 53//2
f 21//2 22//2 53//2 52//2
f 5//2 21//2 52//2 50//2
f 25//2 10//2 51//2 56//2
f 96//2 97//2 63//2 62//2
f 95//2 96//2 62//2 61//2
f 94//2 95//2 61//2 60//2
f 93//2 94//2 60//2 59//2
f 98//2 93//2 59//2 58//2
f 97//2 92//2 57//2 63//2
f 62//2 63//2 70//2 69//2
f 61//2 62//2 69//2 68//2
f 60//2 61//2 68//2 67//2
f 59//2 60//2 67//2 66//2
f 58//2 59//2 66//2 64//2
f 63//2 57//2 65//2 70//2
f 48//2 49//2 77//2 76//2
f 47//2 48//2 76//2 75//2
f 46//2 47//2 75//2 74//2
f 45//2 46//2 74//2 73//2
f 43//2 45//2 73//2 71//2
f 49//2 44//2 72//2 77//2
f 111//2 106//2 78//2 83//2
f 112//2 107//2 79//2 84//2
f 107//2 108//2 80//2 79//2
f 108//2 109//2 81//2 80//2
f 109//2 110//2 82//2 81//2
f 110//2 111//2 83//2 82//2
f 41//2 42//2 91//2 90//2
f 40//2 41//2 90//2 89//2
f 39//2 40//2 89//2 88//2
f 38//2 39//2 88//2 87//2
f 36//2 38//2 87//2 85//2
f 42//2 37//2 86//2 91//2
f 104//2 99//2 92//2 97//2
f 105//2 100//2 93//2 98//2
f 100//2 101//2 94//2 93//2
f 101//2 102//2 95//2 94//2
f 102//2 103//2 96//2 95//2
f 103//2 104//2 97//2 96//2
f 12//2 11//2 104//2 103//2
f 13//2 12//2 103//2 102//2
f 14//2 13//2 102//2 101//2
f 15//2 14//2 101//2 100//2
f 1//2 15//2 100//2 105//2
f 11//2 3//2 99//2 104//2
f 29//2 30//2 111//2 110//2
f 28//2 29//2 110//2 109//2
f 27//2 28//2 109//2 108//2
f 26//2 27//2 108//2 107//2
f 6//2 26//2 107//2 112//2
f 30//2 9//2 106//2 111//2
f 90//2 91//2 119//2 118//2
f 89//2 90//2 118//2 117//2
f 88//2 89//2 117//2 116//2
f 87//2 88//2 116//2 115//2
f 85//2 87//2 115//2 113//2
f 91//2 86//2 114//2 119//2
f 231//1 124//1 125//1 226//1
f 172//1 141//1 137//1 138//1
f 196//1 160//1 161//1 198//1
f 200//1 162//1 142//1 202//1
f 130//1 131//1 155//1 168//1
f 208//1 151//1 152//1 210//1
f 212//1 153//1 154//1 214//1
f 133//1 183//1 178//1 159//1
f 142//1 182//1 134//1 135//1
f 190//1 191//1 195//1 219//1
f 223//1 203//1 193//1 218//1
f 154//1 171//1 172//1 140//1
f 152//1 169//1 170//1 153//1
f 236//1 215//1 217//1 237//1
f 234//1 211//1 213//1 235//1
f 207//1 128//1 208//1 209//1
f 217//1 216//1 204//1 205//1
f 199//1 198//1 200//1 201//1
f 195//1 194//1 196//1 197//1
f 164//1 220//1 221//1 165//1
f 166//1 222//1 223//1 167//1
f 180//1 187//1 188//1 181//1
f 178//1 185//1 186//1 179//1
f 173//1 233//1 234//1 174//1
f 175//1 235//1 236//1 176//1
f 121//1 238//1 173//1 120//1
f 157//1 165//1 166//1 158//1
f 155//1 163//1 164//1 156//1
f 188//1 230//1 231//1 189//1
f 186//1 228//1 229//1 187//1
f 225//3 183//3 311//3 323//3
f 126//4 232//4 325//4 289//4
f 19//5 20//5 243//5 266//5
f 122//3 225//3 323//3 285//3
f 120//6 146//6 306//6 283//6
f 18//5 19//5 266//5 265//5
f 146//6 145//6 305//6 306//6
f 17//5 18//5 265//5 264//5
f 72//7 44//7 272//7 271//7
f 98//8 58//8 276//8 275//8
f 145//6 144//6 304//6 305//6
f 8//7 72//7 271//7 254//7
f 16//5 17//5 264//5 263//5
f 114//7 86//7 268//7 280//7
f 4//7 114//7 280//7 244//7
f 84//8 43//8 270//8 269//8
f 65//7 57//7 274//7 273//7
f 144//6 143//6 303//6 304//6
f 43//8 71//8 251//8 270//8
f 2//5 16//5 263//5 242//5
f 36//8 85//8 279//8 267//8
f 92//7 99//7 245//7 281//7
f 85//8 113//8 241//8 279//8
f 143//6 127//6 290//6 303//6
f 14//9 15//9 239//9 262//9
f 13//9 14//9 262//9 261//9
f 190//3 224//3 322//3 313//3
f 206//3 238//3 326//3 319//3
f 12//9 13//9 261//9 260//9
f 224//3 131//3 294//3 322//3
f 11//9 12//9 260//9 259//9
f 139//4 138//4 301//4 302//4
f 3//9 11//9 259//9 246//9
f 137//4 136//4 299//4 300//4
f 135//4 134//4 297//4 298//4
f 112//8 84//8 269//8 278//8
f 134//4 184//4 312//4 297//4
f 105//8 98//8 275//8 282//8
f 138//4 137//4 300//4 301//4
f 6//8 112//8 278//8 250//8
f 204//4 139//4 302//4 317//4
f 133//3 132//3 295//3 296//3
f 183//3 133//3 296//3 311//3
f 130//3 129//3 292//3 293//3
f 252//10 267//10 311//10 296//10
f 256//11 257//11 301//11 300//11
f 242//12 263//12 307//12 286//12
f 271//11 272//11 316//11 315//11
f 249//10 250//10 294//10 293//10
f 268//11 253//11 297//11 312//11
f 263//12 264//12 308//12 307//12
f 251//10 252//10 296//10 295//10
f 250//10 278//10 322//10 294//10
f 264//12 265//12 309//12 308//12
f 240//10 282//10 326//10 284//10
f 253//11 254//11 298//11 297//11
f 282//10 275//10 319//10 326//10
f 265//12 266//12 310//12 309//12
f 278//10 269//10 313//10 322//10
f 255//11 256//11 300//11 299//11
f 266//12 243//12 287//12 310//12
f 257//11 258//11 302//11 301//11
f 246//13 259//13 303//13 290//13
f 279//10 241//10 285//10 323//10
f 239//13 240//13 284//13 283//13
f 277//11 255//11 299//11 321//11
f 259//13 260//13 304//13 303//13
f 281//11 245//11 289//11 325//11
f 244//11 280//11 324//11 288//11
f 241//10 242//10 286//10 285//10
f 274//11 281//11 325//11 318//11
f 267//10 279//10 323//10 311//10
f 260//13 261//13 305//13 304//13
f 272//11 277//11 321//11 316//11
f 243//12 244//12 288//12 287//12
f 270//10 251//10 295//10 314//10
f 280//11 268//11 312//11 324//11
f 261//13 262//13 306//13 305//13
f 276//10 247//10 291//10 320//10
f 245//11 246//11 290//11 289//11
f 273//11 274//11 318//11 317//11
f 254//11 271//11 315//11 298//11
f 248//10 249//10 293//10 292//10
f 262//13 239//13 283//13 306//13
f 258//11 273//11 317//11 302//11
f 269//10 270//10 314//10 313//10
f 247//10 248//10 292//10 291//10
f 275//10 276//10 320//10 319//10
f 147//14 123//14 286//14 307//14
f 132//3 191//3 314//3 295//3
f 205//4 204//4 317//4 318//4
f 226//4 125//4 288//4 324//4
f 191//3 190//3 313//3 314//3
f 184//4 226//4 324//4 312//4
f 148//14 147//14 307//14 308//14
f 192//4 135//4 298//4 315//4
f 207//3 206//3 319//3 320//3
f 1//8 105//8 282//8 240//8
f 193//4 192//4 315//4 316//4
f 149//14 148//14 308//14 309//14
f 150//14 149//14 309//14 310//14
f 15//9 1//9 240//9 239//9
f 124//14 150//14 310//14 287//14
f 113//8 2//8 242//8 241//8
f 238//3 121//3 284//3 326//3
f 20//5 4//5 244//5 243//5
f 99//7 3//7 246//7 245//7
f 64//8 5//8 248//8 247//8
f 121//6 120//6 283//6 284//6
f 78//7 106//7 255//7 277//7
f 57//7 92//7 281//7 274//7
f 44//7 78//7 277//7 272//7
f 50//8 6//8 250//8 249//8
f 58//8 64//8 247//8 276//8
f 5//8 50//8 249//8 248//8
f 123//3 122//3 285//3 286//3
f 7//8 36//8 267//8 252//8
f 71//8 7//8 252//8 251//8
f 10//7 65//7 273//7 258//7
f 125//14 124//14 287//14 288//14
f 9//7 51//7 257//7 256//7
f 86//7 37//7 253//7 268//7
f 37//7 8//7 254//7 253//7
f 127//4 126//4 289//4 290//4
f 106//7 9//7 256//7 255//7
f 129//3 128//3 291//3 292//3
f 136//4 218//4 321//4 299//4
f 51//7 10//7 258//7 257//7
f 232//4 205//4 318//4 325//4
f 218//4 193//4 316//4 321//4
f 131//3 130//3 293//3 294//3
f 128//3 207//3 320//3 291//3
