# Blender v2.78 (sub 0) OBJ File: '8.blend'
# www.blender.org
mtllib Analog_Clock_01.mtl
o Analog_clock_Circle.001
v 0.000000 10.000000 0.498307
v -1.913417 9.619397 0.498307
v -3.535534 8.535534 0.498307
v -4.619398 6.913417 0.498307
v -5.000000 5.000000 0.498307
v -4.619398 3.086582 0.498307
v -3.535534 1.464466 0.498307
v -1.913417 0.380602 0.498307
v -0.000001 -0.000000 0.498307
v 1.913416 0.380602 0.498307
v 3.535533 1.464465 0.498307
v 4.619398 3.086582 0.498307
v 5.000000 5.000000 0.498307
v 4.619397 6.913418 0.498307
v 3.535533 8.535536 0.498307
v 1.913415 9.619399 0.498307
v -0.000000 8.878583 0.498307
v -1.484269 8.583344 0.498307
v -2.742572 7.742572 0.498307
v -3.583343 6.484269 0.498307
v -3.878582 5.000000 0.498307
v -3.583343 3.515730 0.498307
v -2.742572 2.257428 0.498307
v -1.484269 1.416657 0.498307
v -0.000001 1.121418 0.498307
v 1.484268 1.416657 0.498307
v 2.742571 2.257427 0.498307
v 3.583343 3.515730 0.498307
v 3.878583 5.000000 0.498307
v 3.583343 6.484270 0.498307
v 2.742571 7.742573 0.498307
v 1.484267 8.583344 0.498307
v -0.000000 5.000000 0.498307
v 3.535533 8.535536 0.781075
v 4.619397 6.913418 0.781075
v 5.000000 5.000000 0.781075
v 4.619398 3.086582 0.781075
v 3.535533 1.464465 0.781075
v 1.913416 0.380602 0.781075
v -0.000001 -0.000000 0.781075
v -1.913417 0.380602 0.781075
v -3.535534 1.464466 0.781075
v -4.619398 3.086582 0.781075
v -5.000000 5.000000 0.781075
v -4.619398 6.913417 0.781075
v -3.535534 8.535534 0.781075
v 0.000000 10.000000 0.781075
v -1.913417 9.619397 0.781075
v 1.913415 9.619399 0.781075
v -1.484269 8.583344 0.781075
v -0.000000 8.878583 0.781075
v -2.742572 7.742572 0.781075
v -3.583343 6.484269 0.781075
v -3.878582 5.000000 0.781075
v -3.583343 3.515730 0.781075
v -2.742572 2.257428 0.781075
v -1.484269 1.416657 0.781075
v -0.000001 1.121418 0.781075
v 1.484268 1.416657 0.781075
v 2.742571 2.257427 0.781075
v 3.583343 3.515730 0.781075
v 3.878583 5.000000 0.781075
v 3.583343 6.484270 0.781075
v 2.742571 7.742573 0.781075
v 1.484267 8.583344 0.781075
v -0.000000 5.000000 0.781075
v 1.484267 8.583344 1.152327
v 2.742571 7.742573 1.152327
v 3.583343 6.484270 1.152327
v 3.878583 5.000000 1.152327
v 3.583343 3.515730 1.152327
v 2.742571 2.257427 1.152327
v 1.484268 1.416657 1.152327
v -0.000001 1.121418 1.152327
v -1.484269 1.416657 1.152327
v -2.742572 2.257428 1.152327
v -3.583343 3.515730 1.152327
v -3.878582 5.000000 1.152327
v -3.583343 6.484269 1.152327
v -2.742572 7.742572 1.152327
v -1.484269 8.583344 1.152327
v -0.000000 8.878583 1.152327
v -0.153436 8.534443 0.774834
v 0.153436 8.534443 0.774834
v -1.900101 7.984200 0.774834
v -1.634342 8.137635 0.774834
v -3.137636 6.634342 0.774834
v -2.984200 6.900101 0.774834
v -3.534443 4.846564 0.774834
v -3.534443 5.153436 0.774834
v -2.984200 3.099899 0.774834
v -3.137636 3.365657 0.774834
v -1.634343 1.862365 0.774834
v -1.900101 2.015800 0.774834
v 0.153435 1.465556 0.774834
v -0.153436 1.465556 0.774834
v 1.900100 2.015800 0.774834
v 1.634341 1.862364 0.774834
v 3.137635 3.365656 0.774834
v 2.984199 3.099898 0.774834
v 3.534443 5.153434 0.774834
v 3.534443 4.846562 0.774834
v 2.984201 6.900099 0.774834
v 3.137636 6.634340 0.774834
v 1.634344 8.137634 0.774834
v 1.900103 7.984199 0.774834
v 0.153436 7.732340 0.774834
v -0.153436 7.732340 0.774834
v -1.233291 7.442994 0.774834
v -1.499049 7.289557 0.774834
v -2.289558 6.499049 0.774834
v -2.442994 6.233291 0.774834
v -2.732340 5.153436 0.774834
v -2.732340 4.846564 0.774834
v -2.442994 3.766709 0.774834
v -2.289558 3.500950 0.774834
v -1.499049 2.710442 0.774834
v -1.233291 2.557006 0.774834
v -0.153436 2.267660 0.774834
v 0.153435 2.267660 0.774834
v 1.233290 2.557006 0.774834
v 1.499048 2.710441 0.774834
v 2.289558 3.500949 0.774834
v 2.442994 3.766708 0.774834
v 2.732340 4.846563 0.774834
v 2.732340 5.153434 0.774834
v 2.442994 6.233289 0.774834
v 2.289559 6.499047 0.774834
v 1.499051 7.289557 0.774834
v 1.233292 7.442993 0.774834
v -0.143007 7.410802 0.781158
v 0.143007 7.410802 0.781158
v 0.153436 4.791291 0.802490
v -0.153436 4.791291 0.802490
v 0.819133 6.243673 0.787124
v 1.017074 6.087779 0.787124
v -0.008594 4.741102 0.802490
v -0.249674 4.930972 0.802490
v -2.442571 6.233996 0.870382
v -2.289135 6.499755 0.870382
v -2.983777 6.900806 0.870382
v -3.137213 6.635048 0.870382
v -3.534020 5.154141 0.870382
v -3.534020 4.847270 0.870382
v -2.731917 4.847270 0.870382
v -2.731917 5.154141 0.870382
v 2.732763 5.154140 0.870382
v 2.732763 4.847269 0.870382
v 3.534866 4.847268 0.870382
v 3.534866 5.154140 0.870382
v 3.138059 6.635046 0.870382
v 2.984624 6.900805 0.870382
v 2.289982 6.499753 0.870382
v 2.443417 6.233995 0.870382
v 0.153858 2.268365 0.870382
v -0.153013 2.268365 0.870382
v -0.153013 1.466262 0.870382
v 0.153858 1.466262 0.870382
v 1.634764 1.863070 0.870382
v 1.900523 2.016505 0.870382
v 1.499471 2.711147 0.870382
v 1.233713 2.557711 0.870382
v -3.137213 3.366363 0.870382
v -2.983777 3.100605 0.870382
v -2.289135 3.501656 0.870382
v -2.442571 3.767414 0.870382
v 1.900526 7.984904 0.870382
v 1.634767 8.138340 0.870382
v 1.233715 7.443699 0.870382
v 1.499474 7.290263 0.870382
v -0.153013 7.733046 0.870382
v 0.153859 7.733046 0.870382
v 0.153859 8.535149 0.870382
v -0.153013 8.535149 0.870382
v -1.633919 8.138341 0.870382
v -1.899678 7.984905 0.870382
v -1.498626 7.290263 0.870382
v -1.232868 7.443699 0.870382
v 2.984622 3.100604 0.870382
v 3.138058 3.366362 0.870382
v 2.443416 3.767414 0.870382
v 2.289980 3.501655 0.870382
v -1.899678 2.016506 0.870382
v -1.633920 1.863070 0.870382
v -1.232868 2.557712 0.870382
v -1.498626 2.711148 0.870382
v -0.249251 4.931678 0.888863
v -0.008171 4.741807 0.888863
v 1.017497 6.088485 0.888863
v 0.819556 6.244379 0.888863
v -0.142584 7.411508 0.888863
v -0.153013 4.791996 0.888863
v 0.143430 7.411508 0.888863
v 0.153859 4.791996 0.888863
v 0.119730 5.289053 0.918666
v 0.221232 5.221232 0.918666
v 0.289053 5.119730 0.918666
v 0.312869 5.000000 0.918666
v 0.289053 4.880270 0.918666
v 0.221232 4.778768 0.918666
v 0.119730 4.710947 0.918666
v -0.000000 4.687131 0.918666
v -0.119730 4.710947 0.918666
v -0.221232 4.778768 0.918666
v -0.289053 4.880270 0.918666
v -0.312869 5.000000 0.918666
v -0.289053 5.119730 0.918666
v -0.221232 5.221232 0.918666
v -0.119730 5.289053 0.918666
v -0.000000 5.312869 0.918666
v -0.000000 5.000000 0.918667
v -0.119730 5.289053 0.581053
v -0.221232 5.221232 0.581053
v -0.289053 5.119730 0.581053
v -0.312869 5.000000 0.581053
v -0.289053 4.880270 0.581053
v -0.221232 4.778768 0.581053
v -0.119730 4.710947 0.581053
v -0.000000 4.687131 0.581053
v 0.119730 4.710947 0.581053
v 0.221232 4.778768 0.581053
v 0.289053 4.880270 0.581053
v 0.312869 5.000000 0.581053
v 0.289053 5.119730 0.581053
v 0.221232 5.221232 0.581053
v 0.119730 5.289053 0.581053
v -0.000000 5.312869 0.581053
v 0.000000 10.000000 0.999360
v -0.000000 9.674777 1.152327
v 1.788957 9.318932 1.152327
v 1.913415 9.619399 0.999360
v 3.305565 8.305568 1.152327
v 3.535533 8.535536 0.999360
v 4.318930 6.788960 1.152327
v 4.619397 6.913418 0.999360
v 4.674777 5.000000 1.152327
v 5.000000 5.000000 0.999360
v 4.318930 3.211040 1.152327
v 4.619398 3.086582 0.999360
v 3.305565 1.694433 1.152327
v 3.535533 1.464465 0.999360
v 1.788958 0.681069 1.152327
v 1.913416 0.380602 0.999360
v -0.000001 0.325223 1.152327
v -0.000001 -0.000000 0.999360
v -1.788960 0.681070 1.152327
v -1.913417 0.380602 0.999360
v -3.305566 1.694434 1.152327
v -3.535534 1.464466 0.999360
v -4.318930 3.211040 1.152327
v -4.619398 3.086582 0.999360
v -4.674777 5.000000 1.152327
v -5.000000 5.000000 0.999360
v -4.318930 6.788960 1.152327
v -4.619398 6.913417 0.999360
v -3.305566 8.305567 1.152327
v -3.535534 8.535534 0.999360
v -1.788960 9.318930 1.152327
v -1.913417 9.619397 0.999360
vn -0.0000 -0.0000 1.0000
vn 0.0000 0.0000 -1.0000
vn -0.9808 -0.1951 0.0000
vn -0.8315 -0.5556 0.0000
vn 0.1951 -0.9808 0.0000
vn -0.5556 -0.8315 0.0000
vn 0.5556 -0.8315 0.0000
vn 0.8315 -0.5556 0.0000
vn 0.9808 -0.1951 0.0000
vn 0.9808 0.1951 0.0000
vn 0.8315 0.5556 0.0000
vn -0.1951 0.9808 0.0000
vn 0.1951 0.9808 0.0000
vn -0.5556 0.8315 0.0000
vn -0.8315 0.5556 0.0000
vn -0.9808 0.1951 0.0000
vn 0.5556 0.8315 0.0000
vn -0.1951 -0.9808 0.0000
vn 0.0844 0.4241 0.9017
vn 0.2402 0.3595 0.9017
vn 0.3595 0.2402 0.9017
vn 0.4241 0.0844 0.9017
vn 0.4241 -0.0844 0.9017
vn 0.3595 -0.2402 0.9017
vn 0.2402 -0.3595 0.9017
vn 0.0844 -0.4241 0.9017
vn -0.0844 -0.4241 0.9017
vn -0.2402 -0.3595 0.9017
vn -0.3595 -0.2402 0.9017
vn -0.4241 -0.0844 0.9017
vn -0.4241 0.0844 0.9017
vn -0.3595 0.2402 0.9017
vn -0.2402 0.3595 0.9017
vn -0.0844 0.4241 0.9017
vn -0.0056 -0.0071 -1.0000
vn 0.0000 -0.0081 -1.0000
vn 0.5000 -0.8660 0.0042
vn 0.8660 0.5000 -0.0075
vn 0.7955 -0.6059 0.0010
vn -0.5000 0.8660 -0.0042
vn 0.6187 0.7856 -0.0080
vn 0.8660 -0.5000 -0.0001
vn -0.8660 -0.5000 0.0075
vn -0.7755 0.6314 -0.0012
vn 0.5000 0.8660 -0.0086
vn -1.0000 0.0040 0.0043
vn -0.8660 0.5000 0.0001
vn 0.0000 1.0000 -0.0074
vn 0.0000 1.0000 -0.0065
vn -0.5000 -0.8660 0.0086
vn -1.0000 0.0000 0.0044
vn 1.0000 0.0040 -0.0044
vn 0.0000 -1.0000 0.0074
vn 0.0000 -1.0000 0.0082
vn 1.0000 -0.0000 -0.0044
vn -0.6187 -0.7856 0.0094
usemtl FFFFFF
s off
f 56//1 57//1 66//1
f 64//1 65//1 66//1
f 57//1 58//1 66//1
f 51//1 50//1 66//1
f 65//1 51//1 66//1
f 58//1 59//1 66//1
f 50//1 52//1 66//1
f 59//1 60//1 66//1
f 52//1 53//1 66//1
f 60//1 61//1 66//1
f 53//1 54//1 66//1
f 61//1 62//1 66//1
f 54//1 55//1 66//1
f 62//1 63//1 66//1
f 55//1 56//1 66//1
f 63//1 64//1 66//1
usemtl 795548
f 1//2 17//2 18//2 2//2
f 16//2 32//2 17//2 1//2
f 9//2 25//2 26//2 10//2
f 2//2 18//2 19//2 3//2
f 10//2 26//2 27//2 11//2
f 3//2 19//2 20//2 4//2
f 11//2 27//2 28//2 12//2
f 4//2 20//2 21//2 5//2
f 12//2 28//2 29//2 13//2
f 5//2 21//2 22//2 6//2
f 13//2 29//2 30//2 14//2
f 6//2 22//2 23//2 7//2
f 14//2 30//2 31//2 15//2
f 7//2 23//2 24//2 8//2
f 15//2 31//2 32//2 16//2
f 8//2 24//2 25//2 9//2
f 23//2 33//2 24//2
f 31//2 33//2 32//2
f 24//2 33//2 25//2
f 17//2 33//2 18//2
f 32//2 33//2 17//2
f 25//2 33//2 26//2
f 18//2 33//2 19//2
f 26//2 33//2 27//2
f 19//2 33//2 20//2
f 27//2 33//2 28//2
f 20//2 33//2 21//2
f 28//2 33//2 29//2
f 21//2 33//2 22//2
f 29//2 33//2 30//2
f 22//2 33//2 23//2
f 30//2 33//2 31//2
f 63//3 62//3 70//3 69//3
f 229//1 258//1 81//1 82//1
f 254//1 252//1 78//1 79//1
f 64//4 63//4 69//4 68//4
f 50//5 51//5 82//5 81//5
f 252//1 250//1 77//1 78//1
f 65//6 64//6 68//6 67//6
f 52//7 50//7 81//7 80//7
f 250//1 248//1 76//1 77//1
f 53//8 52//8 80//8 79//8
f 248//1 246//1 75//1 76//1
f 54//9 53//9 79//9 78//9
f 246//1 244//1 74//1 75//1
f 55//10 54//10 78//10 77//10
f 244//1 242//1 73//1 74//1
f 56//11 55//11 77//11 76//11
f 1//12 2//12 48//12 47//12
f 16//13 1//13 47//13 49//13
f 9//5 10//5 39//5 40//5
f 2//14 3//14 46//14 48//14
f 10//7 11//7 38//7 39//7
f 3//15 4//15 45//15 46//15
f 11//8 12//8 37//8 38//8
f 4//16 5//16 44//16 45//16
f 12//9 13//9 36//9 37//9
f 5//3 6//3 43//3 44//3
f 13//10 14//10 35//10 36//10
f 6//4 7//4 42//4 43//4
f 14//11 15//11 34//11 35//11
f 7//6 8//6 41//6 42//6
f 15//17 16//17 49//17 34//17
f 8//18 9//18 40//18 41//18
f 230//1 229//1 82//1 67//1
f 47//12 48//12 259//12 228//12
f 41//18 40//18 245//18 247//18
f 40//5 39//5 243//5 245//5
f 48//14 46//14 257//14 259//14
f 39//7 38//7 241//7 243//7
f 46//15 45//15 255//15 257//15
f 38//8 37//8 239//8 241//8
f 45//16 44//16 253//16 255//16
f 37//9 36//9 237//9 239//9
f 44//3 43//3 251//3 253//3
f 36//10 35//10 235//10 237//10
f 43//4 42//4 249//4 251//4
f 35//11 34//11 233//11 235//11
f 42//6 41//6 247//6 249//6
f 256//1 254//1 79//1 80//1
f 232//1 230//1 67//1 68//1
f 62//16 61//16 71//16 70//16
f 258//1 256//1 80//1 81//1
f 234//1 232//1 68//1 69//1
f 61//15 60//15 72//15 71//15
f 34//17 49//17 231//17 233//17
f 236//1 234//1 69//1 70//1
f 60//14 59//14 73//14 72//14
f 238//1 236//1 70//1 71//1
f 59//12 58//12 74//12 73//12
f 240//1 238//1 71//1 72//1
f 51//18 65//18 67//18 82//18
f 58//13 57//13 75//13 74//13
f 57//17 56//17 76//17 75//17
f 242//1 240//1 72//1 73//1
f 229//19 230//19 231//19 228//19
f 230//20 232//20 233//20 231//20
f 232//21 234//21 235//21 233//21
f 234//22 236//22 237//22 235//22
f 236//23 238//23 239//23 237//23
f 238//24 240//24 241//24 239//24
f 240//25 242//25 243//25 241//25
f 242//26 244//26 245//26 243//26
f 244//27 246//27 247//27 245//27
f 246//28 248//28 249//28 247//28
f 248//29 250//29 251//29 249//29
f 250//30 252//30 253//30 251//30
f 252//31 254//31 255//31 253//31
f 254//32 256//32 257//32 255//32
f 256//33 258//33 259//33 257//33
f 258//34 229//34 228//34 259//34
f 49//13 47//13 228//13 231//13
usemtl 1A1A1A
f 172//1 173//1 174//1 171//1
f 168//1 169//1 170//1 167//1
f 164//1 165//1 166//1 163//1
f 160//1 161//1 162//1 159//1
f 156//1 157//1 158//1 155//1
f 152//1 153//1 154//1 151//1
f 148//1 149//1 150//1 147//1
f 144//1 145//1 146//1 143//1
f 140//1 141//1 142//1 139//1
f 188//1 189//1 190//1 187//1
f 137//35 138//35 135//35 136//35
f 111//2 112//2 87//2 88//2
f 89//2 90//2 113//2 114//2
f 125//2 126//2 101//2 102//2
f 103//2 104//2 127//2 128//2
f 119//2 120//2 95//2 96//2
f 97//2 98//2 121//2 122//2
f 91//2 92//2 115//2 116//2
f 105//2 106//2 129//2 130//2
f 107//2 108//2 83//2 84//2
f 85//2 86//2 109//2 110//2
f 99//2 100//2 123//2 124//2
f 93//2 94//2 117//2 118//2
f 133//36 134//36 131//36 132//36
f 176//1 177//1 178//1 175//1
f 180//1 181//1 182//1 179//1
f 184//1 185//1 186//1 183//1
f 194//1 193//1 191//1 192//1
f 110//37 109//37 178//37 177//37
f 104//38 103//38 152//38 151//38
f 137//39 136//39 189//39 188//39
f 109//38 86//38 175//38 178//38
f 103//40 128//40 153//40 152//40
f 136//41 135//41 190//41 189//41
f 100//42 99//42 180//42 179//42
f 128//43 127//43 154//43 153//43
f 135//44 138//44 187//44 190//44
f 99//45 124//45 181//45 180//45
f 127//37 104//37 151//37 154//37
f 131//46 134//46 192//46 191//46
f 124//47 123//47 182//47 181//47
f 120//48 119//48 156//48 155//48
f 132//49 131//49 191//49 193//49
f 123//50 100//50 179//50 182//50
f 119//51 96//51 157//51 156//51
f 133//52 132//52 193//52 194//52
f 94//50 93//50 184//50 183//50
f 96//53 95//53 158//53 157//53
f 134//54 133//54 194//54 192//54
f 93//42 118//42 185//42 184//42
f 95//55 120//55 155//55 158//55
f 118//45 117//45 186//45 185//45
f 98//37 97//37 160//37 159//37
f 117//47 94//47 183//47 186//47
f 97//38 122//38 161//38 160//38
f 122//40 121//40 162//40 161//40
f 121//43 98//43 159//43 162//43
f 92//43 91//43 164//43 163//43
f 91//37 116//37 165//37 164//37
f 116//38 115//38 166//38 165//38
f 112//42 111//42 140//42 139//42
f 115//40 92//40 163//40 166//40
f 111//45 88//45 141//45 140//45
f 106//45 105//45 168//45 167//45
f 88//47 87//47 142//47 141//47
f 105//47 130//47 169//47 168//47
f 87//50 112//50 139//50 142//50
f 130//50 129//50 170//50 169//50
f 90//51 89//51 144//51 143//51
f 129//42 106//42 167//42 170//42
f 89//53 114//53 145//53 144//53
f 108//53 107//53 172//53 171//53
f 114//55 113//55 146//55 145//55
f 107//55 84//55 173//55 172//55
f 113//48 90//48 143//48 146//48
f 84//48 83//48 174//48 173//48
f 126//51 125//51 148//51 147//51
f 83//51 108//51 171//51 174//51
f 125//53 102//53 149//53 148//53
f 86//40 85//40 176//40 175//40
f 102//55 101//55 150//55 149//55
f 85//43 110//43 177//43 176//43
f 101//48 126//48 147//48 150//48
f 138//56 137//56 188//56 187//56
f 205//1 204//1 211//1
f 198//1 197//1 211//1
f 206//1 205//1 211//1
f 199//1 198//1 211//1
f 207//1 206//1 211//1
f 200//1 199//1 211//1
f 208//1 207//1 211//1
f 201//1 200//1 211//1
f 209//1 208//1 211//1
f 202//1 201//1 211//1
f 210//1 209//1 211//1
f 203//1 202//1 211//1
f 196//1 195//1 211//1
f 195//1 210//1 211//1
f 204//1 203//1 211//1
f 197//1 196//1 211//1
f 204//4 205//4 216//4 217//4
f 197//10 198//10 223//10 224//10
f 205//3 206//3 215//3 216//3
f 198//9 199//9 222//9 223//9
f 206//16 207//16 214//16 215//16
f 199//8 200//8 221//8 222//8
f 207//15 208//15 213//15 214//15
f 200//7 201//7 220//7 221//7
f 208//14 209//14 212//14 213//14
f 201//5 202//5 219//5 220//5
f 209//12 210//12 227//12 212//12
f 202//18 203//18 218//18 219//18
f 195//17 196//17 225//17 226//17
f 210//13 195//13 226//13 227//13
f 203//6 204//6 217//6 218//6
f 196//11 197//11 224//11 225//11
