mtllib materials.mtl
v -0.05000007 -0.4799999 -0.09500015
v -0.05000001 -0.4799999 0.07499981
v 0.14 -0.09599435 0.09499991
v 0.1396165 -0.09533072 -0.07536149
v -0.003045738 -0.09907293 -0.07789469
v -0.005000055 -0.09290314 0.09500015
v -0.1500005 0.0150001 -0.07500017
v 0.04000002 0.48 -0.07500017
v 0.04000002 0.48 0.09499979
v -0.1500002 0.0150001 0.09500003
v -0.005000055 0.01499999 0.09500003
v 0.1900001 0.01000011 0.09499979
v -0.005000174 0.01499999 -0.07500017
v 0.1900001 0.01000011 -0.07500017
v -0.1900001 -0.08999991 -0.07500017
v -0.1900001 -0.0999999 0.09499979
vn 0.8962892 -0.4434703 -8.684243E-08
vn -0.9924886 0.1223373 1.415494E-07
vn -0.001095338 -0.05147159 0.9986739
vn -0.9257052 0.3782459 4.65757E-08
vn -4.778729E-07 5.69936E-07 1
vn 0.02563195 0.9996714 -2.022706E-08
vn 3.406709E-07 -1.11354E-07 -1
vn -1.528549E-14 1.748456E-07 -1
vn 0 0 0
vn 1.528549E-14 -1.748456E-07 1
vn 0.9044229 -0.426637 -1.450877E-07
vn 8.648809E-05 0.003389104 -0.9999943
vn -0.9444972 0.3285195 1.407096E-06
vn 0.01661455 0.04280946 -0.9989451
vn -0.01425716 0.02511975 -0.9995828
vn 0.01707484 0.0256551 -0.999525
vn 0.9953501 -0.09632433 -9.486293E-08
vn -0.04929612 -0.9970608 -0.05865058
vn -0.993102 0.1162424 -0.01537354
vn 0.0383077 -0.9986148 0.03606889
vn -0.934284 0.3559143 0.02093619
vn 1.458556E-06 5.731007E-07 1
usemtl mat12
f 4//1 3//1 2//1 1//1
f 2//2 5//2 1//2
f 3//3 6//3 2//3
f 10//4 9//4 8//4 7//4
f 11//5 9//5 10//5
f 14//6 13//6 11//6 12//6
f 13//7 7//7 8//7
f 15//8 7//8 13//8
f 3//9 11//9 6//9
f 6//10 11//10 10//10 16//10
f 4//11 14//11 12//11 3//11
f 13//12 14//12 4//12
f 16//13 10//13 7//13
f 1//14 5//14 4//14
f 13//15 5//15 15//15
f 4//16 5//16 13//16
f 13//17 8//17 9//17 11//17
f 16//18 15//18 5//18
f 2//19 6//19 5//19
f 5//20 6//20 16//20
f 7//21 15//21 16//21
f 3//22 12//22 11//22
