mtllib materials.mtl
v 0.006455421 -0.01394844 -0.7602234
v 0.01072872 -0.03999972 -0.7297366
v 0.0363431 -0.0136354 -0.7298507
v 0.005800724 0.01764631 -0.7565001
v 0.03550005 0.01834989 -0.7259498
v -0.03215766 0.03672934 -0.7128316
v 0.0283618 0.0189786 -0.1643215
v -0.0002683401 0.03916121 -0.1769209
v -0.6078971 -0.01213431 -0.7299773
v -0.5937576 -0.01864839 -0.1502832
v -0.5806569 -0.03999972 -0.1812558
v -0.5806569 -0.03999949 -0.7297367
v -0.1371177 0.0400002 -0.7297367
v -0.1374999 0.02000022 -0.7600001
v -0.1374999 -0.01999974 -0.7600001
v -0.1371177 -0.03999949 -0.7297367
v 0.00763607 -0.01560092 0.03552078
v 0.03782916 -0.01605248 0.003590673
v 0.0107286 -0.03999996 0.007885173
v 0.007113338 0.01910186 0.03391946
v -0.06828976 0.0678556 0.02038904
v 0.0107286 0.03999996 0.007885233
v -0.5410125 0.05073547 -0.7188597
v -0.6090228 0.01446819 -0.7238427
v -0.5794187 0.01558542 -0.754473
v -0.5776341 0.01378798 0.03546841
v -0.6077963 0.01449203 0.003513634
v -0.580657 0.0400002 0.007885113
v -0.5735937 -0.0199728 0.03599826
v -0.4325 -0.01999974 0.03999991
v -0.4328107 -0.03999972 0.007885128
v -0.580657 -0.03999972 0.007885113
v -0.5779884 -0.01223874 -0.7603307
v -0.597883 0.01360607 -0.1493356
v -0.5704914 0.04275298 -0.1784667
v -0.4319661 0.06299829 -0.2787719
v -0.431675 0.07092905 -0.1232589
v 0.03733087 0.0185132 0.002014741
v 0.02866781 -0.01492381 -0.1637074
v 0.0107286 -0.03999996 -0.1812558
v -0.1371177 -0.03999972 -0.1812557
v -0.1371177 -0.03999996 0.007885158
v -0.6034881 -0.0197916 0.003785625
v -0.5799999 4.768372E-07 -0.7600001
v -0.4324999 -0.0199995 -0.7600001
v -0.4324999 0.02000046 -0.7600001
v -0.6099998 4.768372E-07 -0.7297367
v -0.61 2.384186E-07 0.007885069
v -0.5996515 -0.0009031296 -0.1476669
v -0.5817373 0.005971909 0.04448189
v -0.4873118 0.06812048 0.01844427
v -0.4286336 0.01213908 0.07777646
v 0.01808393 -0.00164938 0.04323582
v 0.03999996 0 0.007885203
v 0.03154588 0.0005264282 -0.1608666
v 0.04000008 2.384186E-07 -0.7297366
v 0.01000011 2.384186E-07 -0.76
v -0.2811953 0.0480907 -0.7074651
v -0.1362923 0.06263518 -0.2759004
v -0.2825 0.06091404 -0.3228762
v -0.4328104 0.0400002 -0.7297367
v -0.2849998 0.02000022 -0.7600001
v -0.2872908 0.002545357 -0.773539
v -0.2870317 -0.02900124 -0.7641835
v -0.4328104 -0.03999949 -0.7297367
v -0.2849641 -0.03999949 -0.7297367
v -0.4328105 -0.03999972 -0.1812558
v -0.2849642 -0.03999972 -0.1812557
v -0.285 -0.01999998 0.03999994
v -0.1374999 -0.01999998 0.03999997
v -0.2849642 -0.03999972 0.007885143
v -0.2725546 0.002616167 0.06520355
v -0.2002835 0.001443624 0.0642438
v -0.1188896 0.003041506 0.06854194
v -0.2826239 0.02438617 0.0461371
v -0.1377108 0.09138775 0.04080458
v -0.351789 -0.0005283356 0.05927099
v -0.4302481 0.1023693 0.03612302
v -0.3513328 0.03263187 0.04591254
v -0.1722139 0.08563662 -0.07643272
v -0.1360077 0.07044077 -0.1193973
v -0.3793463 0.08517146 -0.06849624
v -0.2881455 0.081671 -0.123985
v -0.2918488 0.006486893 -0.1942372
v -0.3946552 0.02645922 -0.108939
v -0.1655083 0.02608824 -0.1192005
v -0.140963 0.05381942 0.02543658
v -0.2161434 0.03003263 0.05128855
v -0.2182884 0.0200932 0.03243468
v -0.2864299 0.008365154 0.0279172
v -0.3533115 0.01845884 0.03233576
v -0.4189353 0.05106688 0.01075905
v -0.2829499 0.06533599 -0.1902526
vn 0.5871438 -0.5729172 -0.5718637
vn 0.2134891 0.9496277 -0.2294116
vn 0.3717074 0.9282852 -0.01097113
vn -0.7715433 -0.6361487 0.005996524
vn 0.05674673 0.8942758 -0.4439037
vn 0.01604828 -0.7962192 -0.6047954
vn 0.5932913 -0.569357 0.5690678
vn 0.346818 0.7073348 0.6159503
vn -0.4155622 0.8303036 -0.3713544
vn -0.6045038 0.5433193 0.5825627
vn -0.007752211 -0.8323848 0.554144
vn -0.5835565 -0.5754141 -0.5730274
vn -0.7160631 0.6969702 -0.03855129
vn -0.191084 0.981362 -0.02038327
vn 0.5942541 0.5849081 0.5520368
vn 0.7390696 -0.6732978 -0.0211279
vn -8.047717E-07 -1 -6.292094E-07
vn -0.6041282 -0.5694566 0.5574481
vn 0.0008624733 0.006361199 -0.9999794
vn -0.6867704 0.2890681 -0.6669227
vn -0.9509166 -0.3031927 -0.06190213
vn -0.6871968 -0.3889993 0.6135473
vn -0.2061868 0.627746 0.7506144
vn 0.699982 0.4558077 0.549786
vn 0.9883176 0.1436356 -0.05096317
vn 0.6790624 0.2997632 -0.6700867
vn -0.04547928 0.335409 -0.9409742
vn -0.9903547 0.1219485 -0.06577341
vn -0.6731945 0.5110194 0.5344795
vn -0.7075511 -0.1030504 -0.6991081
vn -0.08537778 -0.6245612 0.776295
vn 0.6890449 -0.499835 0.5247687
vn 0.9878275 -0.1464251 -0.05250222
vn 0.7010108 -0.174559 -0.6914573
vn 0.02550853 0.9987825 -0.04222551
vn 0.01404642 0.864384 -0.5026361
vn -2.438705E-07 0.6128952 -0.7901642
vn 0.06997611 -0.1290906 -0.9891608
vn -0.03382023 -0.901705 -0.431027
vn 1.533881E-09 -1 -4.327494E-07
vn -7.586028E-07 -0.8488513 0.5286319
vn -0.006040936 -0.7544296 0.6563532
vn 0.02069921 0.6641107 0.7473477
vn 0.1241283 0.9918358 -0.02922264
vn 0.3713786 0.3492211 0.8603038
vn 0.0714369 -0.7262352 0.6837246
vn 0.02116872 -0.8018907 0.5970957
vn 1.533667E-09 -1 -4.31145E-07
vn 0.03335749 -0.9008703 -0.4328049
vn -0.0005660691 0.004178277 -0.9999911
vn 0.02721451 0.2007027 -0.9792742
vn -0.01431774 0.8649512 -0.5016518
vn -0.02303135 0.9988167 -0.04283345
vn -0.02164711 0.7727202 -0.6343777
vn 1.71776E-06 0.612895 -0.7901644
vn -0.07208851 -0.1295771 -0.9889454
vn -0.02009972 -0.7860315 -0.6178597
vn 1.533767E-09 -1 -4.31827E-07
vn -7.601775E-07 -0.8488511 0.528632
vn 0.00581877 -0.7348457 0.6782094
vn 0.2528859 0.4092338 0.876685
vn 0.27649 0.9532792 -0.1217053
vn -0.2949907 0.937933 -0.1823793
vn 0.4133944 -0.6143295 0.6720896
vn -0.3073125 -0.6155847 0.7256821
vn -0.9551343 -0.1763878 0.2379196
vn -0.4223214 0.5609057 -0.71206
vn -0.06552611 0.8222915 -0.5652815
vn 0.0754087 0.716194 -0.6938153
vn 0.5033901 0.4935631 -0.7092207
vn 0.9056832 -0.2413773 0.3485327
vn 0.4659839 0.8805545 -0.08650327
vn 0.3107074 0.9411386 -0.1331135
vn -0.2779071 0.9563676 -0.0901592
vn 0.07876081 0.9653463 -0.2488037
vn -0.07394464 0.9733421 -0.2171114
vn -0.4055547 0.9079894 -0.1052646
vn -0.1555151 0.9877941 -0.008825468
vn 0.1716484 0.985143 -0.005490932
vn -0.09167238 0.2804545 0.9554797
vn 0.273854 0.3561362 0.8934042
vn -0.08271617 0.6346681 0.7683454
vn -0.1025841 0.3628041 0.9262018
vn 0.04171541 0.372846 0.926955
vn -0.05620111 0.3860676 0.9207569
vn 0.6046221 0.7957333 -0.03522498
vn 0.2116502 0.9768301 -0.03173606
vn -0.006278675 0.9990871 -0.04225626
vn 0.009766278 0.9990349 -0.04282426
vn -0.04591375 0.9988099 -0.01645466
vn -0.5659782 0.8244156 -0.002769639
vn -0.9956201 0.09161535 0.01863765
vn -0.9653887 -0.2601452 0.01868766
vn -0.7638166 -0.6449943 -0.02380393
vn 1.533706E-09 -1 -5.139738E-09
vn 1.53366E-09 -1 1.418715E-08
vn -8.047711E-07 -1 -6.192567E-07
vn -1.611076E-06 -1 -4.334955E-07
vn 0.7624278 -0.6470577 0.00450207
vn 0.9752857 -0.2205216 0.01371154
vn 0.9788272 0.2042564 0.01329186
vn -0.4677763 0.3635337 0.8056232
vn -0.2814379 0.6800022 0.6770449
vn 0.1714363 0.493354 0.8527669
vt -0.0718974 0.2590519
vt -0.06831585 0.2571982
vt -0.06804047 0.2608637
vt 0.005135573 0.09994499
vt 0.001463029 0.1021063
vt 0.00161133 0.09497516
vt 0.04454067 0.08716406
vt -0.00601847 0.06271262
vt -0.003439483 0.06015744
vt 0.04631615 0.08030514
vt -0.133494 0.002121208
vt -0.09866159 -0.04424114
vt -0.09844395 -0.04027724
vt -0.1303191 0.004356612
vt -0.03780334 0.1267982
vt -0.03538005 0.1164513
vt -0.03179708 0.1168011
vt -0.03344799 0.131035
vt -0.09164025 0.2260306
vt -0.09858266 0.2134074
vt -0.09543739 0.2116155
vt -0.08797099 0.2243741
vt 0.1267271 0.2196538
vt 0.1241217 0.223193
vt 0.1230282 0.2197191
vt 0.07213032 0.1487472
vt 0.08012074 0.1444333
vt 0.07468297 0.1509289
vt -0.03436141 0.1766482
vt -0.03165498 0.1694142
vt -0.0292597 0.1729386
vt 0.03669567 0.2191761
vt 0.04071984 0.2174098
vt 0.03999839 0.2210899
vt 0.1142806 0.08527347
vt 0.1148987 0.09937452
vt 0.1111172 0.09941934
vt 0.1108171 0.08463819
vt -0.1490839 0.1451705
vt -0.1497244 0.1409576
vt -0.1460758 0.1423263
vt -0.06665116 0.2011142
vt -0.05242175 0.2067808
vt -0.05100403 0.211518
vt -0.06829096 0.2044819
vt -0.03693232 0.1222611
vt -0.01954453 0.1290314
vt -0.01432895 0.1454385
vt -0.02918287 0.1407881
vt 0.09682859 0.1205723
vt 0.09745202 0.116222
vt 0.09973793 0.1186818
vt 0.07369673 0.2450881
vt 0.05764877 0.2498883
vt 0.05502162 0.247538
vt 0.07295661 0.2415447
vt 0.04324031 0.1410497
vt 0.02542812 0.1474113
vt 0.02045551 0.1334879
vt 0.03826769 0.1271264
vt 0.1430865 0.006144882
vt 0.1445169 0.01030031
vt 0.1413768 0.008702479
vt -0.1490134 0.17275
vt -0.147828 0.1723844
vt -0.1406492 0.1850626
vt -0.1442299 0.1868453
vt -0.1052023 0.2122587
vt -0.1067529 0.2128346
vt -0.1089731 0.2091976
vt -0.1074999 0.2086702
vt -0.15626 0.08043268
vt -0.1541753 0.08002865
vt -0.1481921 0.09426006
vt -0.1500231 0.09472058
vt 0.1545837 0.08761798
vt 0.1518074 0.08698444
vt 0.152697 0.08268128
vt 0.1548008 0.0829612
vt 0.07964045 0.1831941
vt 0.08045055 0.1841227
vt 0.08002698 0.1947879
vt 0.07001235 0.1955674
vt 0.1133888 0.1196206
vt 0.1158276 0.1201847
vt 0.1147031 0.1244199
vt 0.112895 0.1237402
vt 0.1240066 0.1401415
vt 0.124784 0.1419409
vt 0.1122824 0.1529497
vt 0.1113234 0.1513051
vt -0.1215952 0.1035055
vt -0.1233889 0.1042093
vt -0.1249697 0.100252
vt -0.1232495 0.09957848
vt -0.1320595 0.145889
vt -0.1305145 0.1452967
vt -0.127499 0.159873
vt -0.1146778 0.1895105
vt -0.1142216 0.1880505
vt -0.1013222 0.1968055
vt -0.1020023 0.19811
vt 0.02587177 0.2237642
vt 0.02506538 0.2228626
vt 0.02924787 0.2208339
vt 0.02994294 0.2221484
vt -0.1366131 0.1986345
vt -0.1377961 0.1990086
vt -0.1396099 0.1951525
vt -0.138435 0.1947824
vt 0.1446106 0.1036863
vt 0.1472798 0.1032465
vt 0.147144 0.1189008
vt 0.1424252 0.1176026
vt 0.127108 0.2220174
vt 0.128538 0.223203
vt 0.1258848 0.2263819
vt 0.124505 0.2255323
vt 0.09846507 0.2068215
vt 0.09955288 0.2080955
vt 0.08429659 0.2153573
vt 0.0833572 0.2140664
vt -0.0921253 0.2212843
vt -0.09268451 0.2225806
vt -0.09620993 0.2201868
vt -0.09563486 0.2188673
vt 0.02912837 0.128813
vt 0.02662157 0.1431933
vt -0.01641863 0.1286254
vt -0.007259912 0.1163022
vt -0.04737655 0.1124493
vt -0.04417181 0.09744351
vt -0.04055829 0.09768675
vt -0.04141079 0.1124106
vt -0.09271057 0.1357198
vt -0.09228693 0.1508549
vt -0.09484632 0.1363287
vt -0.1349001 0.2044568
vt -0.1283807 0.2179406
vt -0.1318318 0.219896
vt -0.1377718 0.2059783
vt -0.09165682 0.1777736
vt -0.09862618 0.1649762
vt -0.09547625 0.1632477
vt -0.0884189 0.1762296
vt -0.03616979 0.1380122
vt -0.0411424 0.1240889
vt 0.01051033 0.1056415
vt 0.01548295 0.1195648
vt 0.1119579 0.1135427
vt 0.1125304 0.1282816
vt 0.1087514 0.1284667
vt 0.1081776 0.1136932
vt 0.1306812 0.1259887
vt 0.1301067 0.1331945
vt 0.130056 0.1413459
vt 0.1265063 0.1392715
vt 0.1273744 0.1245474
vt 0.07758652 0.1824506
vt 0.07079899 0.1879525
vt 0.07459249 0.1817992
vt 0.03338096 0.1237789
vt 0.02818753 0.1330145
vt -0.02323498 0.1176167
vt -0.009236702 0.1080412
vt 0.1266411 0.186566
vt 0.1215462 0.1922177
vt 0.1177039 0.1834978
vt 0.1323711 0.1560635
vt 0.1291238 0.1696107
vt 0.1276958 0.1684169
vt 0.1288704 0.1539432
vt 0.1203189 0.1375695
vt 0.120048 0.1520908
vt 0.1163708 0.1523494
vt 0.1165483 0.1375691
vt -0.03119718 0.1519355
vt -0.03616979 0.1380122
vt 0.01548295 0.1195648
vt 0.02045557 0.1334881
vt -0.08149226 0.199378
vt -0.0885309 0.186157
vt -0.08526607 0.1846684
vt -0.07831107 0.1977057
vt -0.127523 0.2117153
vt -0.1216431 0.2248692
vt -0.1227335 0.2258087
vt -0.1311029 0.2134996
vt -0.1262903 0.193692
vt -0.1187325 0.2065154
vt -0.1205528 0.2068301
vt -0.04595432 0.1333961
vt -0.04745429 0.1188736
vt -0.04148864 0.1188391
vt -0.04233664 0.1335632
vt 0.03358713 0.1249376
vt 0.02666689 0.1386293
vt -0.00981283 0.1263882
vt -0.009301442 0.1108157
vt -0.06972989 0.1106261
vt -0.07169025 0.0998823
vt -0.06686799 0.09583326
vt -0.06612318 0.1105185
vt -0.09740581 0.1218021
vt -0.09271063 0.1357194
vt -0.09484638 0.1363284
vt -0.1422326 0.1967237
vt -0.1346558 0.2091703
vt -0.1375187 0.2107077
vt -0.145751 0.1985546
vt -0.1162712 0.1859254
vt -0.1241219 0.1736555
vt -0.1207087 0.1713318
vt -0.113179 0.184052
vt -0.0411424 0.1240889
vt -0.04611503 0.1101656
vt 0.005537717 0.09171815
vt 0.01051033 0.1056415
vt 0.1113854 0.09880386
vt 0.1119579 0.1135428
vt 0.1081776 0.1136932
vt 0.1076037 0.09891967
vt 0.1357081 0.1150149
vt 0.13291 0.1225098
vt 0.132954 0.1304585
vt 0.1296726 0.12896
vt 0.1307961 0.1142531
vt 0.1327277 0.1707643
vt 0.1227403 0.1742457
vt 0.1241445 0.1657525
vt -0.04561175 0.05470526
vt -0.03339182 0.05529603
vt -0.03046328 0.0603255
vt -0.04587055 0.06230958
vt -0.07361136 0.1503509
vt -0.06987315 0.1446951
vt -0.05773845 0.1538124
vt -0.06437822 0.1575351
vt 0.1333182 0.1799952
vt 0.1282527 0.1893955
vt 0.1180577 0.1879763
vt 0.1264962 0.1774328
vt 0.1391316 0.09199075
vt 0.1401317 0.1044825
vt 0.1328026 0.1038847
vt 0.1291414 0.08952377
vt -0.07830412 0.1775049
vt -0.0900083 0.1739944
vt -0.08732074 0.1709962
vt -0.07253434 0.1729727
vt -0.1426074 0.2019417
vt -0.1398139 0.1923662
vt -0.1378624 0.1922493
vt -0.1388604 0.2006096
vt -0.1206716 0.1347828
vt -0.1198565 0.128146
vt -0.1174434 0.127773
vt -0.1185529 0.1346076
vt -0.1355721 0.1195076
vt -0.1367866 0.1126954
vt -0.1348527 0.1123169
vt -0.1331969 0.1188893
vt -0.1525475 0.09033303
vt -0.1605353 0.08340215
vt -0.1547345 0.08280479
vt -0.1508335 0.0893705
vt 0.141023 0.1954501
vt 0.1318837 0.2027228
vt 0.1250622 0.2005466
vt 0.135552 0.1939671
vt 9.305906E-06 -0.005935892
vt -0.01461517 -0.00779149
vt -0.009749999 -0.01368074
vt -0.03046546 0.05088968
vt -0.04717931 0.06124522
vt -0.0458727 0.05287536
vt -0.05560233 0.1444993
vt -0.05172841 0.1354911
vt -0.04359096 0.1538566
vt -0.06072776 0.1042477
vt -0.06432611 0.09967426
vt -0.05711538 0.08941934
vt -0.05058349 0.09146234
vt -0.05751104 0.1235327
vt -0.06080351 0.1133733
vt -0.05411685 0.1095453
vt -0.05097622 0.1255605
vt -0.05730151 0.1974545
vt -0.07218886 0.196323
vt -0.07033779 0.1880628
vt -0.02290694 0.1489756
vt -0.03405937 0.158742
vt -0.04677662 0.148923
vt -0.04416668 0.142505
vt -0.009135463 0.07011007
vt -0.005026343 0.08297588
vt -0.02588659 0.07531555
vt -0.02382333 0.06886076
vt 0.1109585 0.2164777
vt 0.1122527 0.2264068
vt 0.1033272 0.2233047
vt 0.1278938 0.1761975
vt 0.1248466 0.1743275
vt 0.1293572 0.1677143
vt 0.07458108 0.1966437
vt 0.07158676 0.1959937
vt 0.07585668 0.1892855
vt 0.1055876 0.210702
vt 0.1024025 0.2165872
vt 0.09889601 0.2163202
vt 0.1166902 0.1947726
vt 0.1125129 0.2002899
vt 0.11364 0.1929074
vt 0.102834 0.21297
vt 0.09509231 0.2196716
vt 0.09932727 0.2127056
vt 0.01784428 -0.0003204048
vt 0.003495079 -0.008780783
vt 0.004866007 -0.01196705
vt 0.02081364 -0.002564077
vt -0.01857448 0.09727351
vt -0.03620582 0.09163334
vt -0.01895267 0.08220758
vt -0.004376939 0.08795358
vt -0.01798494 0.1353302
vt -0.03285368 0.1303856
vt -0.02145671 0.1187031
vt -0.008887829 0.1229571
vt -0.008160124 0.1195717
vt -0.02072002 0.1152914
vt -0.02233359 0.09905055
vt -0.007569565 0.1039983
vt -0.01135861 0.1007919
vt 0.03878857 0.1211002
vt 0.03635899 0.1316408
vt -0.006400684 0.1172119
vt -0.03781014 0.1889982
vt 0.01712645 0.2058227
vt 0.014301 0.2129593
vt -0.03624097 0.1936114
vt -0.09046715 0.1992979
vt -0.04001141 0.2283383
vt -0.0412448 0.229301
vt -0.09105217 0.2006469
vt -0.1385057 0.1155036
vt -0.1073557 0.1644172
vt -0.108393 0.1650718
vt -0.140206 0.1163168
vt -0.1008908 -0.03618792
vt -0.09260122 -0.04920375
vt -0.08988865 -0.04782405
vt -0.1005986 -0.03224078
vt 0.005537783 0.09171812
vt 0.02334997 0.08535662
vt 0.02832259 0.09927993
vt 0.0105104 0.1056414
vt 0.0105104 0.1056414
vt 0.02832259 0.09927993
vt 0.03329521 0.1132032
vt 0.01548302 0.1195647
vt 0.01548289 0.1195646
vt 0.03329507 0.1132031
vt 0.03826769 0.1271264
vt 0.02045551 0.1334879
vt 0.0254281 0.1474111
vt -0.02622462 0.1658585
vt -0.03119725 0.1519352
vt 0.02045549 0.1334878
vt 0.06202147 0.2497143
vt 0.00876742 0.2689428
vt 0.007570022 0.2654762
vt 0.0593506 0.2473925
vt 0.08817768 0.223261
vt 0.03778375 0.2496674
vt 0.03712255 0.2484213
vt 0.08719943 0.2219999
vt 0.1249774 0.1292967
vt 0.0906104 0.1737229
vt 0.08888155 0.1728741
vt 0.1237039 0.1278825
vt 0.08833736 0.2198168
vt 0.08647328 0.2264457
vt 0.0783317 0.2207443
vt 0.06335945 0.1982733
vt 0.06398183 0.1876144
vt 0.06738974 0.1893339
vt 0.1003003 0.2019366
vt 0.09212411 0.2058869
vt 0.08960953 0.2056571
vt 0.09615897 0.1933548
o group1851623675
g mesh1851623675
usemtl mat8
f 3/3/1 2/2/1 1/1/1
f 6/6/2 5/5/2 4/4/2
f 6/10/3 8/9/3 7/8/3 5/7/3
f 12/14/4 11/13/4 10/12/4 9/11/4
f 4/18/5 14/17/5 13/16/5 6/15/5
f 2/22/6 16/21/6 15/20/6 1/19/6
f 19/25/7 18/24/7 17/23/7
f 22/28/8 21/27/8 20/26/8
f 25/31/9 24/30/9 23/29/9
f 28/34/10 27/33/10 26/32/10
f 32/38/11 31/37/11 30/36/11 29/35/11
f 12/41/12 9/40/12 33/39/12
f 28/45/13 35/44/13 34/43/13 27/42/13
f 37/49/14 36/48/14 35/47/14 28/46/14
f 22/52/15 20/51/15 38/50/15
f 19/56/16 40/55/16 39/54/16 18/53/16
f 42/60/17 41/59/17 40/58/17 19/57/17
f 32/63/18 29/62/18 43/61/18
f 46/67/19 45/66/19 33/65/19 44/64/19
f 47/71/20 24/70/20 25/69/20 44/68/20
f 49/75/21 10/74/21 43/73/21 48/72/21
f 48/79/22 43/78/22 29/77/22 50/76/22
f 52/83/23 51/82/23 26/81/23 50/80/23
f 54/87/24 38/86/24 20/85/24 53/84/24
f 55/91/25 7/90/25 38/89/25 54/88/25
f 57/95/26 4/94/26 5/93/26 56/92/26
f 46/98/27 44/97/27 25/96/27
f 34/102/28 49/101/28 48/100/28 27/99/28
f 27/106/29 48/105/29 50/104/29 26/103/29
f 9/110/30 47/109/30 44/108/30 33/107/30
f 30/114/31 52/113/31 50/112/31 29/111/31
f 18/118/32 54/117/32 53/116/32 17/115/32
f 39/122/33 55/121/33 54/120/33 18/119/33
f 1/126/34 57/125/34 56/124/34 3/123/34
f 60/130/35 59/129/35 13/128/35 58/127/35
f 62/134/36 46/133/36 61/132/36 58/131/36
f 62/137/37 14/136/37 63/135/37
f 63/141/38 14/140/38 15/139/38 64/138/38
f 66/145/39 65/144/39 45/143/39 64/142/39
f 68/149/40 67/148/40 65/147/40 66/146/40
f 71/153/41 42/152/41 70/151/41 69/150/41
f 69/158/42 70/157/42 74/156/42 73/155/42 72/154/42
f 72/161/43 73/160/43 75/159/43
f 59/165/44 8/164/44 6/163/44 13/162/44
f 74/168/45 21/167/45 76/166/45
f 70/172/46 17/171/46 53/170/46 74/169/46
f 42/176/47 19/175/47 17/174/47 70/173/47
f 41/180/48 68/179/48 66/178/48 16/177/48
f 16/184/49 66/183/49 64/182/49 15/181/49
f 14/188/50 57/187/50 1/186/50 15/185/50
f 4/191/51 57/190/51 14/189/51
f 14/195/52 62/194/52 58/193/52 13/192/52
f 36/199/53 60/198/53 58/197/53 61/196/53
f 46/203/54 25/202/54 23/201/54 61/200/54
f 62/206/55 63/205/55 46/204/55
f 46/210/56 63/209/56 64/208/56 45/207/56
f 65/214/57 12/213/57 33/212/57 45/211/57
f 67/218/58 11/217/58 12/216/58 65/215/58
f 31/222/59 71/221/59 69/220/59 30/219/59
f 30/227/60 69/226/60 72/225/60 77/224/60 52/223/60
f 52/230/61 79/229/61 78/228/61
f 21/234/62 81/233/62 80/232/62 76/231/62
f 82/238/63 37/237/63 51/236/63 78/235/63
f 87/254/67 89/253/67 88/252/67 76/251/67
f 89/258/68 90/257/68 75/256/68 88/255/68
f 90/262/69 91/261/69 79/260/69 75/259/69
f 91/266/70 92/265/70 78/264/70 79/263/70
f 21/276/73 22/275/73 81/274/73
f 37/279/74 28/278/74 51/277/74
f 93/283/75 83/282/75 80/281/75 81/280/75
f 93/287/76 37/286/76 82/285/76 83/284/76
f 74/301/80 76/300/80 88/299/80
f 52/304/81 77/303/81 79/302/81
f 77/307/82 72/306/82 75/305/82
f 73/310/83 88/309/83 75/308/83
f 77/313/84 75/312/84 79/311/84
f 73/316/85 74/315/85 88/314/85
f 8/320/86 22/319/86 38/318/86 7/317/86
f 59/324/87 81/323/87 22/322/87 8/321/87
f 60/328/88 93/327/88 81/326/88 59/325/88
f 36/332/89 37/331/89 93/330/89 60/329/89
f 36/336/90 61/335/90 23/334/90 35/333/90
f 35/340/91 23/339/91 24/338/91 34/337/91
f 34/344/92 24/343/92 47/342/92 49/341/92
f 49/348/93 47/347/93 9/346/93 10/345/93
f 11/352/94 32/351/94 43/350/94 10/349/94
f 67/356/95 31/355/95 32/354/95 11/353/95
f 68/360/96 71/359/96 31/358/96 67/357/96
f 41/364/97 42/363/97 71/362/97 68/361/97
f 41/368/98 16/367/98 2/366/98 40/365/98
f 40/372/99 2/371/99 3/370/99 39/369/99
f 39/376/100 3/375/100 56/374/100 55/373/100
f 55/380/101 56/379/101 5/378/101 7/377/101
f 52/383/102 78/382/102 51/381/102
f 28/386/103 26/385/103 51/384/103
f 74/390/104 53/389/104 20/388/104 21/387/104
usemtl mat7
f 85/242/64 84/241/64 83/240/64 82/239/64
f 84/246/65 86/245/65 80/244/65 83/243/65
f 86/250/66 87/249/66 76/248/66 80/247/66
f 92/270/71 85/269/71 82/268/71 78/267/71
f 92/273/72 91/272/72 85/271/72
f 89/290/77 87/289/77 86/288/77
f 90/294/78 89/293/78 86/292/78 84/291/78
f 91/298/79 90/297/79 84/296/79 85/295/79
