# Blender 3.4.1
# www.blender.org
mtllib Girl Puppet.mtl
o Cube
v 0.977607 7.386683 0.769763
v 0.981829 7.401053 -0.159450
v 0.638538 5.796361 0.741861
v 0.638538 5.811339 -0.187352
v 0.000000 7.682981 -0.159450
v 0.000000 5.258843 0.733197
v 0.000000 5.273821 -0.196016
v 0.000000 7.668610 0.769763
v 0.921604 5.796361 0.741861
v 0.921604 5.811339 -0.187352
v 0.000000 5.273821 -0.196016
v 0.000000 5.258843 0.733197
v 0.921604 5.796361 0.741861
v 0.921604 5.811339 -0.187352
v 0.000000 5.273821 -0.196016
v 0.000000 5.258843 0.733197
v 1.435236 5.123686 0.799648
v 1.435236 5.140876 -0.266789
v 0.000000 4.523979 -0.276733
v 0.000000 4.506789 0.789705
v 2.803229 2.658262 0.879548
v 2.803229 2.679308 -0.426108
v 0.000000 1.924032 -0.438282
v 0.000000 1.902986 0.867373
v 1.024025 2.171465 0.646360
v 1.024025 2.181987 -0.006368
v 0.000000 1.921465 -0.010568
v 0.000000 1.910944 0.642161
v 0.538882 0.202902 0.462728
v 0.539633 0.208458 0.114890
v 0.000000 0.196836 0.113534
v 0.000000 0.191280 0.461372
v 0.691686 6.969865 0.760777
v 0.691686 6.984843 -0.168436
v 0.000000 6.796752 0.757987
v 0.000000 6.811730 -0.171227
v 3.117813 6.285029 0.656712
v 3.117813 6.297009 -0.086498
v 2.871216 5.851123 -0.093685
v 2.871216 5.839143 0.649525
v 3.416244 5.943811 0.421492
v 3.416244 5.948387 0.137603
v 3.322049 5.778069 0.134858
v 3.322049 5.773493 0.418747
v 0.486474 7.703063 0.595835
v 0.487595 7.706879 0.021355
v 0.000000 7.777934 0.595835
v 0.000000 7.781750 0.021355
v 0.599735 9.032261 0.618696
v 0.602478 9.035142 0.044216
v 0.000000 9.357414 0.618696
v 0.000000 9.360339 0.044216
v 0.000000 8.981421 0.613254
v 0.000000 8.984558 0.038774
v 0.575130 8.718950 0.038774
v 0.572774 8.715847 0.613254
v 0.521820 9.038996 0.005258
v 0.000000 9.364193 -0.408522
v 0.000000 8.988412 -0.413241
v 0.505220 8.722805 -0.017145
v 0.616499 9.059826 0.030201
v 0.000000 9.385023 0.030201
v 0.623148 9.205238 -0.008757
v 0.000000 9.530436 -0.422538
v -0.977607 7.386683 0.769763
v -0.981829 7.401053 -0.159450
v -0.638538 5.796361 0.741861
v -0.638538 5.811339 -0.187352
v -0.921604 5.796361 0.741861
v -0.921604 5.811339 -0.187352
v -0.921604 5.796361 0.741861
v -0.921604 5.811339 -0.187352
v -1.435236 5.123686 0.799648
v -1.435236 5.140876 -0.266789
v -2.803229 2.658262 0.879548
v -2.803229 2.679308 -0.426108
v -1.024025 2.171465 0.646360
v -1.024025 2.181987 -0.006368
v -0.538882 0.202902 0.462728
v -0.539633 0.208458 0.114890
v -0.691686 6.969865 0.760777
v -0.691686 6.984843 -0.168436
v -3.117813 6.285029 0.656712
v -3.117813 6.297009 -0.086498
v -2.871216 5.851123 -0.093685
v -2.871216 5.839143 0.649525
v -3.416244 5.943811 0.421492
v -3.416244 5.948387 0.137603
v -3.322049 5.778069 0.134858
v -3.322049 5.773493 0.418747
v -0.486474 7.703063 0.595835
v -0.487595 7.706879 0.021355
v -0.599735 9.032261 0.618696
v -0.602478 9.035142 0.044216
v -0.575130 8.718950 0.038774
v -0.572774 8.715847 0.613254
v -0.521820 9.038996 0.005258
v -0.505220 8.722805 -0.017145
v -0.616499 9.059826 0.030201
v -0.623148 9.205238 -0.008757
vn -0.0000 0.0161 -0.9999
vn 0.9990 -0.0452 -0.0007
vn 0.1874 0.7719 -0.6075
vn -0.0000 -0.0161 0.9999
vn -0.0000 0.9999 0.0161
vn -0.0400 0.0656 0.9970
vn -0.0140 0.0273 0.9995
vn 0.7944 0.6074 0.0098
vn -0.0400 0.0977 -0.9944
vn 0.2564 -0.9665 0.0142
vn 0.8743 0.4854 0.0078
vn -0.0140 0.0595 -0.9981
vn 0.0154 -0.0682 -0.9976
vn 0.2658 -0.9639 -0.0155
vn 0.2565 -0.9660 -0.0313
vn 0.0216 -0.9996 -0.0159
vn 0.0139 -0.1001 0.9949
vn 0.9711 -0.2388 -0.0031
vn -0.0027 -0.0155 0.9999
vn -0.4610 -0.8873 -0.0143
vn 0.0027 0.0155 -0.9999
vn 0.7563 0.6542 0.0105
vn 0.4585 0.8886 0.0152
vn 0.0332 -0.0019 -0.9994
vn 0.0320 -0.0385 0.9987
vn 0.8751 -0.4839 -0.0078
vn -0.1521 -0.9882 -0.0159
vn 0.4137 -0.2146 -0.8848
vn 0.4137 -0.2430 0.8774
vn 0.3062 -0.3168 -0.8977
vn 0.1800 0.7386 0.6497
vn 0.5339 0.8454 0.0121
vn 0.4758 0.8795 0.0056
vn 0.9963 -0.0856 0.0040
vn -0.0078 -0.0154 0.9999
vn -0.0050 -0.0155 0.9999
vn 0.9963 -0.0856 0.0025
vn 0.0050 0.0155 -0.9999
vn 0.6246 0.0156 -0.7808
vn -0.4552 -0.8890 0.0492
vn 0.5331 0.0002 -0.8460
vn 0.2695 0.8273 0.4930
vn 0.2297 0.4304 0.8729
vn 0.4865 -0.2196 -0.8456
vn -0.9990 -0.0452 -0.0007
vn -0.1874 0.7719 -0.6075
vn 0.0400 0.0656 0.9970
vn 0.0140 0.0273 0.9995
vn -0.7944 0.6074 0.0098
vn 0.0400 0.0977 -0.9944
vn -0.2564 -0.9665 0.0142
vn -0.8743 0.4854 0.0078
vn 0.0140 0.0595 -0.9981
vn -0.0154 -0.0682 -0.9976
vn -0.2658 -0.9639 -0.0155
vn -0.2565 -0.9660 -0.0313
vn -0.0216 -0.9996 -0.0159
vn -0.0139 -0.1001 0.9949
vn -0.9711 -0.2388 -0.0031
vn 0.0027 -0.0155 0.9999
vn 0.4610 -0.8873 -0.0143
vn -0.0027 0.0155 -0.9999
vn -0.7563 0.6542 0.0105
vn -0.4585 0.8886 0.0152
vn -0.0332 -0.0019 -0.9994
vn -0.0320 -0.0385 0.9987
vn -0.8751 -0.4839 -0.0078
vn 0.1521 -0.9882 -0.0159
vn -0.4137 -0.2146 -0.8848
vn -0.4137 -0.2430 0.8774
vn -0.3062 -0.3168 -0.8977
vn -0.1800 0.7386 0.6497
vn -0.5339 0.8454 0.0121
vn -0.4758 0.8795 0.0056
vn -0.9963 -0.0856 0.0040
vn 0.0078 -0.0154 0.9999
vn 0.0050 -0.0155 0.9999
vn -0.9963 -0.0856 0.0025
vn -0.0050 0.0155 -0.9999
vn -0.6246 0.0156 -0.7808
vn 0.4552 -0.8890 0.0492
vn -0.5331 0.0002 -0.8460
vn -0.2695 0.8273 0.4930
vn -0.2297 0.4304 0.8729
vn -0.4865 -0.2196 -0.8456
vt 0.625000 0.500000
vt 0.375000 0.500000
vt 0.625000 0.750000
vt 0.375000 0.750000
vt 0.250000 0.500000
vt 0.750000 0.750000
vt 0.250000 0.750000
vt 0.750000 0.500000
vt 0.625000 0.750000
vt 0.375000 0.750000
vt 0.250000 0.750000
vt 0.750000 0.750000
vt 0.625000 0.750000
vt 0.375000 0.750000
vt 0.250000 0.750000
vt 0.750000 0.750000
vt 0.625000 0.750000
vt 0.375000 0.750000
vt 0.250000 0.750000
vt 0.750000 0.750000
vt 0.625000 0.750000
vt 0.375000 0.750000
vt 0.250000 0.750000
vt 0.750000 0.750000
vt 0.625000 0.750000
vt 0.375000 0.750000
vt 0.250000 0.750000
vt 0.750000 0.750000
vt 0.625000 0.750000
vt 0.375000 0.750000
vt 0.250000 0.750000
vt 0.375000 0.875000
vt 0.625000 0.875000
vt 0.750000 0.750000
vt 0.625000 0.580515
vt 0.375000 0.580515
vt 0.750000 0.580515
vt 0.250000 0.580515
vt 0.625000 0.500000
vt 0.375000 0.500000
vt 0.375000 0.580515
vt 0.625000 0.580515
vt 0.625000 0.500000
vt 0.375000 0.500000
vt 0.375000 0.580515
vt 0.625000 0.580515
vt 0.625000 0.500000
vt 0.375000 0.500000
vt 0.750000 0.500000
vt 0.250000 0.500000
vt 0.625000 0.500000
vt 0.375000 0.500000
vt 0.625000 0.375000
vt 0.750000 0.500000
vt 0.375000 0.375000
vt 0.750000 0.500000
vt 0.250000 0.500000
vt 0.375000 0.500000
vt 0.625000 0.500000
vt 0.375000 0.500000
vt 0.250000 0.500000
vt 0.250000 0.500000
vt 0.375000 0.500000
vt 0.375000 0.500000
vt 0.375000 0.375000
vt 0.375000 0.500000
vt 0.375000 0.375000
vt 0.250000 0.500000
vt 0.625000 0.500000
vt 0.375000 0.500000
vt 0.625000 0.750000
vt 0.375000 0.750000
vt 0.625000 0.750000
vt 0.375000 0.750000
vt 0.625000 0.750000
vt 0.375000 0.750000
vt 0.625000 0.750000
vt 0.375000 0.750000
vt 0.625000 0.750000
vt 0.375000 0.750000
vt 0.625000 0.750000
vt 0.375000 0.750000
vt 0.625000 0.750000
vt 0.375000 0.750000
vt 0.625000 0.580515
vt 0.375000 0.580515
vt 0.625000 0.500000
vt 0.375000 0.500000
vt 0.375000 0.580515
vt 0.625000 0.580515
vt 0.625000 0.500000
vt 0.375000 0.500000
vt 0.375000 0.580515
vt 0.625000 0.580515
vt 0.625000 0.500000
vt 0.375000 0.500000
vt 0.625000 0.500000
vt 0.375000 0.500000
vt 0.375000 0.500000
vt 0.625000 0.500000
vt 0.375000 0.500000
vt 0.375000 0.500000
vt 0.375000 0.500000
vt 0.375000 0.500000
s 0
usemtl Material
f 36/38/1 34/36/1 4/4/1 7/7/1
f 34/36/2 33/35/2 3/3/2 4/4/2
f 2/2/3 5/5/3 48/50/3 46/48/3
f 33/35/4 35/37/4 6/6/4 3/3/4
f 7/7/1 4/4/1 10/10/1 11/11/1
f 9/9/4 12/12/4 16/16/4 13/13/4
f 4/4/5 3/3/5 9/9/5 10/10/5
f 3/3/4 6/6/4 12/12/4 9/9/4
f 13/13/6 16/16/6 20/20/6 17/17/6
f 10/10/4 9/9/4 13/13/4 14/14/4
f 11/11/4 10/10/4 14/14/4 15/15/4
f 17/17/7 20/20/7 24/24/7 21/21/7
f 14/14/8 13/13/8 17/17/8 18/18/8
f 15/15/9 14/14/9 18/18/9 19/19/9
f 21/21/10 24/24/10 28/28/10 25/25/10
f 18/18/11 17/17/11 21/21/11 22/22/11
f 19/19/12 18/18/12 22/22/12 23/23/12
f 22/22/14 21/21/14 25/25/14 26/26/14
f 23/23/15 22/22/15 26/26/15 27/27/15
f 1/1/19 8/8/19 35/37/19 33/35/19
f 5/5/21 2/2/21 34/36/21 36/38/21
f 8/8/31 1/1/31 45/47/31 47/49/31
f 1/1/32 2/2/32 46/48/32 45/47/32
f 36/38/1 7/7/1 68/72/1 82/86/1
f 82/86/45 68/72/45 67/71/45 81/85/45
f 66/70/46 92/96/46 48/50/46 5/5/46
f 81/85/4 67/71/4 6/6/4 35/37/4
f 7/7/1 11/11/1 70/74/1 68/72/1
f 69/73/4 71/75/4 16/16/4 12/12/4
f 68/72/5 70/74/5 69/73/5 67/71/5
f 67/71/4 69/73/4 12/12/4 6/6/4
f 71/75/47 73/77/47 20/20/47 16/16/47
f 70/74/4 72/76/4 71/75/4 69/73/4
f 11/11/4 15/15/4 72/76/4 70/74/4
f 73/77/48 75/79/48 24/24/48 20/20/48
f 72/76/49 74/78/49 73/77/49 71/75/49
f 15/15/50 19/19/50 74/78/50 72/76/50
f 75/79/51 77/81/51 28/28/51 24/24/51
f 74/78/52 76/80/52 75/79/52 73/77/52
f 19/19/53 23/23/53 76/80/53 74/78/53
f 76/80/55 78/82/55 77/81/55 75/79/55
f 23/23/56 27/27/56 78/82/56 76/80/56
f 65/69/60 81/85/60 35/37/60 8/8/60
f 5/5/62 36/38/62 82/86/62 66/70/62
f 8/8/72 47/49/72 91/95/72 65/69/72
f 65/69/73 91/95/73 92/96/73 66/70/73
usemtl Material.001
f 27/27/13 26/26/13 30/30/13 31/31/13
f 30/30/16 29/29/16 32/33/16 31/32/16
f 25/25/17 28/28/17 32/34/17 29/29/17
f 26/26/18 25/25/18 29/29/18 30/30/18
f 33/35/20 34/36/20 39/41/20 40/42/20
f 38/40/22 37/39/22 41/43/22 42/44/22
f 2/2/23 1/1/23 37/39/23 38/40/23
f 34/36/24 2/2/24 38/40/24 39/41/24
f 1/1/25 33/35/25 40/42/25 37/39/25
f 42/44/26 41/43/26 44/46/26 43/45/26
f 40/42/27 39/41/27 43/45/27 44/46/27
f 39/41/28 38/40/28 42/44/28 43/45/28
f 37/39/29 40/42/29 44/46/29 41/43/29
f 47/49/36 45/47/36 56/59/36 53/56/36
f 45/47/37 46/48/37 55/58/37 56/59/37
f 46/48/38 48/50/38 54/57/38 55/58/38
f 27/27/54 31/31/54 80/84/54 78/82/54
f 80/84/57 31/32/57 32/33/57 79/83/57
f 77/81/58 79/83/58 32/34/58 28/28/58
f 78/82/59 80/84/59 79/83/59 77/81/59
f 81/85/61 86/90/61 85/89/61 82/86/61
f 84/88/63 88/92/63 87/91/63 83/87/63
f 66/70/64 84/88/64 83/87/64 65/69/64
f 82/86/65 85/89/65 84/88/65 66/70/65
f 65/69/66 83/87/66 86/90/66 81/85/66
f 88/92/67 89/93/67 90/94/67 87/91/67
f 86/90/68 90/94/68 89/93/68 85/89/68
f 85/89/69 89/93/69 88/92/69 84/88/69
f 83/87/70 87/91/70 90/94/70 86/90/70
f 47/49/77 53/56/77 96/100/77 91/95/77
f 91/95/78 96/100/78 95/99/78 92/96/78
f 92/96/79 95/99/79 54/57/79 48/50/79
usemtl Material.002
f 50/52/30 57/60/30 63/66/30 61/64/30
f 52/55/33 51/53/33 49/51/33 50/52/33
f 56/59/34 55/58/34 50/52/34 49/51/34
f 53/56/35 56/59/35 49/51/35 51/54/35
f 60/63/39 59/62/39 58/61/39 57/60/39
f 55/58/40 54/57/40 59/62/40 60/63/40
f 50/52/41 55/58/41 60/63/41 57/60/41
f 62/65/42 61/64/42 63/66/42 64/67/42
f 52/55/43 50/52/43 61/64/43 62/65/43
f 57/60/44 58/61/44 64/68/44 63/66/44
f 94/98/71 99/103/71 100/104/71 97/101/71
f 52/55/74 94/98/74 93/97/74 51/53/74
f 96/100/75 93/97/75 94/98/75 95/99/75
f 53/56/76 51/54/76 93/97/76 96/100/76
f 98/102/80 97/101/80 58/61/80 59/62/80
f 95/99/81 98/102/81 59/62/81 54/57/81
f 94/98/82 97/101/82 98/102/82 95/99/82
f 62/65/83 64/67/83 100/104/83 99/103/83
f 52/55/84 62/65/84 99/103/84 94/98/84
f 97/101/85 100/104/85 64/68/85 58/61/85
